<svg width="20" height="20" viewBox="0 0 20 20" fill="none" xmlns="http://www.w3.org/2000/svg">
<path fill-rule="evenodd" clip-rule="evenodd" d="M9.25708 12.9534C9.37353 12.683 9.70434 12.5704 9.99922 12.6157C10.2941 12.5704 10.6249 12.683 10.7414 12.9534C11.5743 14.888 12.8379 17.1329 13.212 17.6478C13.8612 18.5415 15.112 18.7395 16.0056 18.0903C16.8992 17.441 17.0973 16.1903 16.4481 15.2967C16.074 14.7818 14.3294 12.8864 12.7469 11.4964C12.368 11.1635 12.624 10.3756 13.1262 10.3291C15.2235 10.1347 17.7489 9.62671 18.3542 9.43005C19.4047 9.08871 19.9796 7.96041 19.6383 6.9099C19.297 5.85939 18.1687 5.28449 17.1182 5.62582C16.5129 5.82248 14.1712 6.89591 12.3602 7.97142C11.9265 8.22897 11.2563 7.74205 11.3673 7.25002C11.8305 5.19531 12.1278 2.63643 12.1278 2C12.1278 0.89543 11.2324 0 10.1278 0C10.0846 0 10.0417 0.00136905 9.99922 0.00406611C9.95671 0.00136905 9.91384 0 9.87065 0C8.76608 0 7.87065 0.89543 7.87065 2C7.87065 2.63643 8.16792 5.19531 8.63118 7.25002C8.74211 7.74205 8.07193 8.22897 7.63826 7.97142C5.82729 6.89591 3.48556 5.82248 2.88029 5.62582C1.82978 5.28449 0.701478 5.85939 0.360146 6.9099C0.0188146 7.96041 0.593716 9.08871 1.64422 9.43005C2.2495 9.62671 4.77496 10.1347 6.87225 10.3291C7.37449 10.3756 7.63049 11.1635 7.25153 11.4964C5.66902 12.8864 3.92447 14.7818 3.55039 15.2967C2.90114 16.1903 3.09924 17.441 3.99285 18.0903C4.88647 18.7395 6.13721 18.5415 6.78646 17.6478C7.16054 17.1329 8.42414 14.888 9.25708 12.9534Z" fill="black"/>
</svg>
