
<svg width="15" height="16" viewBox="0 0 15 16" fill="none" xmlns="http://www.w3.org/2000/svg">
<path opacity="0.65" fill-rule="evenodd" clip-rule="evenodd" d="M7.40663 14.1258C10.9147 14.1258 13.7586 11.2819 13.7586 7.77382C13.7586 4.26574 10.9147 1.42188 7.40663 1.42188C3.89855 1.42188 1.05469 4.26574 1.05469 7.77382C1.05469 11.2819 3.89855 14.1258 7.40663 14.1258ZM7.40663 15.1258C11.467 15.1258 14.7586 11.8342 14.7586 7.77382C14.7586 3.71345 11.467 0.421875 7.40663 0.421875C3.34626 0.421875 0.0546875 3.71345 0.0546875 7.77382C0.0546875 11.8342 3.34626 15.1258 7.40663 15.1258ZM7.42578 7.27344C7.70192 7.27344 7.92578 7.49729 7.92578 7.77344V10.8858C7.92578 11.1619 7.70192 11.3858 7.42578 11.3858C7.14964 11.3858 6.92578 11.1619 6.92578 10.8858V7.77344C6.92578 7.49729 7.14964 7.27344 7.42578 7.27344ZM7.43357 6.16402C7.86288 6.16402 8.2109 5.816 8.2109 5.3867C8.2109 4.95739 7.86288 4.60938 7.43357 4.60938C7.00427 4.60938 6.65625 4.95739 6.65625 5.3867C6.65625 5.816 7.00427 6.16402 7.43357 6.16402Z" fill="white"/>
</svg>
