<svg width="1030" height="579" viewBox="0 0 1030 579" fill="none" xmlns="http://www.w3.org/2000/svg">
<g clip-path="url(#clip0_1711_3867)">
<path d="M662.212 45.4025C676.322 47.6925 694.142 43.3825 700.362 29.5925L700.442 29.4125C710.612 6.97248 677.972 -5.70753 659.152 -0.927525C628.312 8.19247 630.902 40.2325 662.212 45.4025Z" fill="black"/>
<path d="M633.122 94.4924L633.062 94.6924C630.142 103.772 630.982 112.882 630.292 122.212C629.512 133.652 627.072 144.602 628.392 155.812C629.322 164.082 632.892 172.832 638.102 179.452C655.682 201.342 693.072 200.682 704.352 173.152C707.502 167.542 712.342 156.502 719.182 157.262C722.542 157.662 725.962 161.182 728.552 164.732C738.922 180.452 742.392 190.882 763.302 197.322C791.802 207.052 809.422 189.002 829.102 168.632C833.302 164.422 838.932 159.672 845.102 160.032C854.592 160.962 861.032 166.012 868.362 156.272C875.832 145.702 872.732 130.322 877.542 118.612C879.962 112.672 884.662 108.232 889.382 104.052C895.002 99.1424 900.452 93.6724 903.732 86.8424C908.952 76.7724 906.892 66.8124 896.332 62.1524C884.712 56.8824 872.622 62.8524 866.822 73.4124C859.792 83.5624 866.162 106.022 854.882 109.852C849.952 111.222 843.462 109.152 839.002 106.502C825.252 98.0124 817.982 80.9124 804.732 71.5424C780.852 53.8024 745.412 62.2624 732.512 88.5324C730.082 93.1124 728.682 97.8124 727.402 103.042C725.982 108.592 724.382 116.012 719.982 118.042C710.102 121.792 704.642 111.072 700.802 103.332C697.492 96.8224 694.522 89.8024 690.052 84.0724C672.892 61.3824 641.092 67.3624 633.122 94.4824V94.4924Z" fill="black"/>
<path d="M208.318 199.387L208.488 199.267C222.938 190.167 222.698 169.747 236.758 164.257C251.788 158.717 252.848 181.077 263.448 186.557C268.838 189.717 275.338 189.917 279.968 186.607C286.168 182.167 283.678 174.507 280.038 169.817C274.978 162.997 267.698 157.767 262.808 150.777C258.898 145.507 253.038 136.957 249.288 130.327C247.658 127.427 246.258 124.737 245.598 121.527C242.948 109.077 251.258 101.117 260.428 93.9973C265.048 90.3073 270.238 86.5073 275.328 82.7473C281.968 77.8373 288.418 72.9873 293.158 68.4973C295.708 66.0973 298.018 63.5673 299.738 60.3973C302.028 56.0973 303.228 51.1473 299.228 48.4773C293.508 45.1473 285.488 47.2273 279.528 50.1973C266.608 57.2673 255.468 76.2473 244.828 83.0173C241.108 85.4173 236.258 85.9773 231.908 85.0573C217.268 81.7373 217.678 60.5673 201.388 51.5273C191.438 45.5673 178.938 39.8273 167.168 42.8173C146.088 48.6273 128.918 75.0873 128.648 97.4573C129.488 122.607 142.038 173.227 154.918 194.527C166.248 212.107 192.198 210.347 208.308 199.357L208.318 199.387Z" fill="black"/>
<path d="M696.032 488.64L695.852 488.51C686.842 482.05 671.132 478.83 673.262 464.83C674.332 452.84 689.892 451.13 692.872 440.19C694.042 435.74 693.252 430.34 690.472 426.71C680.832 415.44 658.392 423.64 644.492 423.23C630.912 423.2 618.072 416.14 608.222 408.74C602.242 404.46 596.462 400.04 590.032 396.77C580.872 391.92 569.452 390.16 559.172 392.91C534.282 399.72 535.812 431.2 535.312 452.68C533.052 479.13 524.172 510.62 554.602 524.96C561.192 528.11 569.492 530.46 576.462 530.13C606.432 530.7 623.202 472.63 653.412 496.72C661.752 503.22 669.472 513.31 679.652 517.97C707.442 530.07 719.322 506.11 696.032 488.65V488.64Z" fill="black"/>
<path d="M510.779 191.772H510.989C526.309 190.742 540.209 183.742 555.119 180.932C572.019 176.792 591.519 187.572 607.389 179.832C621.929 171.552 620.279 159.352 603.609 153.492C601.949 152.912 600.239 152.492 598.509 152.182C594.609 151.372 590.249 151.502 587.979 148.192C583.489 138.372 603.979 134.882 602.739 126.312C600.789 119.262 584.929 120.502 581.439 112.302C579.849 109.082 580.749 105.102 583.569 102.872C588.379 98.9218 598.519 97.6318 602.789 93.3318C605.469 90.9218 605.679 86.6818 602.849 84.2818C597.389 79.2318 582.669 79.6118 573.679 79.6618C551.109 81.1118 534.409 59.5918 511.749 59.9018C464.529 60.1918 446.299 107.952 452.569 149.332C457.319 177.062 481.259 194.202 510.779 191.762V191.772Z" fill="black"/>
<path d="M198.728 401.513C187.838 405.963 192.718 419.793 191.818 428.573C191.278 436.643 184.658 441.133 177.258 442.793C171.648 444.143 165.508 444.593 159.938 442.963C154.018 441.173 149.978 436.143 146.838 430.853C139.578 418.473 136.588 401.463 126.288 390.703C122.708 386.953 118.238 383.963 112.398 382.183C54.6679 368.203 44.3579 422.933 47.5079 469.763C48.5279 486.933 47.8879 506.663 60.5779 519.573C68.9479 527.703 82.0079 531.713 93.6579 531.393C105.358 530.903 114.578 524.083 121.848 514.763C136.458 496.893 145.338 467.703 168.738 458.843C184.258 454.663 183.098 471.033 186.978 481.043C193.228 497.713 210.118 497.263 214.278 479.983C217.358 466.713 210.828 453.133 214.148 439.913C215.718 433.763 219.178 427.583 221.678 421.883C222.918 419.073 223.758 416.853 223.648 414.833V414.703C221.998 403.543 206.918 398.623 198.718 401.513H198.728Z" fill="black"/>
<path d="M491.407 460.889C481.017 441.559 485.907 434.339 478.757 413.249C475.027 401.449 465.277 393.259 453.267 390.569C425.737 383.769 407.557 412.879 396.437 433.839C388.807 448.209 378.267 469.659 374.677 482.389C373.637 486.149 373.277 489.689 373.597 493.729C375.057 516.059 398.567 531.719 420.517 528.699C441.587 527.399 474.087 491.849 490.807 503.359C496.917 507.279 501.927 516.249 510.257 519.019C521.757 522.399 525.357 514.399 520.547 504.679C515.407 493.019 495.807 469.059 491.417 460.889H491.407Z" fill="black"/>
<path d="M542.164 329.307L542.344 329.177C557.204 317.487 568.304 331.557 580.844 321.147C589.814 312.847 583.164 295.977 583.094 284.157C583.104 278.607 584.134 272.557 585.684 267.017C588.024 258.397 594.194 250.167 591.234 240.937C588.684 232.327 577.854 226.177 569.424 230.117C552.724 239.327 577.244 268.627 560.174 280.187C549.874 285.797 537.834 280.947 529.784 273.157C518.454 262.667 508.584 246.877 492.484 242.147C454.564 233.527 437.914 261.037 441.634 295.517C443.034 318.997 455.464 341.067 476.824 349.627C488.544 354.457 503.104 355.847 515.464 351.717C527.284 347.537 532.464 336.567 542.174 329.297L542.164 329.307Z" fill="black"/>
<path d="M302.53 142.318L302.55 142.528C304.66 166.528 312.93 191.278 340.47 192.738C347.31 193.248 354.83 192.448 361.11 190.028C383.93 181.428 394.05 156.168 415.33 149.258C422.74 146.668 439.08 146.148 439.29 135.988C437.03 125.868 415.57 131.028 407.25 124.918C399.95 120.058 396.41 111.748 393.76 102.988C390.77 93.1581 390.06 84.0581 386.16 74.7481C380.25 60.5981 367.23 52.5981 351.56 52.5781C298.16 53.8981 298.36 101.888 302.53 142.318Z" fill="black"/>
<path d="M424.481 327.352C431.251 317.032 429.751 303.262 427.361 291.752C426.361 287.492 424.891 283.332 422.471 279.652C417.871 272.372 408.671 267.622 400.261 270.382L400.091 270.452C393.921 272.592 394.261 280.322 390.361 284.702C387.821 287.612 383.381 288.262 380.011 286.442C372.101 281.962 368.861 267.992 364.761 259.662C359.991 249.012 354.531 238.842 343.211 235.612C293.211 225.862 273.811 324.662 316.451 349.812C333.611 359.582 347.841 359.152 364.481 348.492C371.861 344.152 379.411 339.222 387.841 337.012C399.821 333.422 416.031 338.912 424.471 327.362L424.481 327.352Z" fill="black"/>
<path d="M710.774 272.752C704.214 270.662 697.874 268.292 691.804 265.362C686.344 262.722 681.124 259.622 676.164 255.852C666.524 248.522 657.444 240.152 645.194 237.652C622.674 233.862 601.524 239.672 601.304 265.922C600.814 274.982 603.394 283.662 603.454 292.672C603.584 320.122 603.124 340.862 632.384 349.992C644.334 353.722 657.264 355.412 668.544 348.902C683.864 340.062 692.604 323.542 708.114 315.152C716.714 310.502 737.174 304.092 735.034 291.082C733.224 280.112 719.564 275.552 710.774 272.742V272.752Z" fill="black"/>
<path d="M772.281 399.083C762.711 385.433 748.151 386.263 739.481 400.323C711.991 442.013 698.791 519.763 759.581 536.073C785.331 541.643 804.431 519.373 806.181 494.633C809.371 468.983 786.961 421.153 772.391 399.233L772.281 399.093V399.083Z" fill="black"/>
<path d="M323.85 451.4L323.75 451.21C315.93 437.7 317.21 421.97 310.14 408.44C303.89 396.33 289.2 391.31 276.24 395.25C266.77 398.37 260.66 407.04 257.17 415.89C245.91 443.87 212.81 479.49 232.9 509.5C239.29 518.92 255.15 522.18 266.11 517.42C271.13 515.29 275.3 511.46 279.58 508.22C291.89 499.1 309.53 491.08 324.58 494.04C333.02 496.03 338.51 503.46 346.47 506.61C355.81 510.35 366.82 507.9 361.19 495.72C352.77 477.58 332.91 469.29 323.85 451.41V451.4Z" fill="black"/>
<path d="M742.992 368.192L743.162 368.322C756.242 378.652 781.262 378.752 785.092 359.642C789.992 337.202 762.082 320.572 743.002 330.452C727.202 338.492 729.732 358.682 742.982 368.192H742.992Z" fill="black"/>
<path d="M982.678 492.568C980.798 482.498 973.828 469.528 962.838 471.438L962.678 471.478C954.708 473.348 951.928 485.288 944.478 487.678C940.628 488.998 935.608 487.438 932.188 484.918C917.818 474.888 924.488 449.508 938.838 443.398C947.178 439.848 956.188 444.098 964.778 443.898C970.078 443.778 973.218 440.378 972.258 435.298C970.578 426.408 959.308 423.228 951.738 421.348C935.558 417.338 925.128 408.298 911.518 399.318C898.508 390.728 884.898 387.428 869.458 390.708C853.248 394.778 836.878 404.608 826.798 418.108C800.788 453.838 823.178 537.798 876.338 529.608C882.248 528.538 887.558 526.408 893.618 525.358C915.738 521.078 934.678 537.228 956.898 535.548C969.438 535.028 977.138 524.968 980.448 513.698C982.478 506.808 983.908 499.668 982.678 492.558V492.568Z" fill="black"/>
</g>
<defs>
<clipPath id="clip0_1711_3867">
<rect width="1030" height="579" fill="white"/>
</clipPath>
</defs>
</svg>
