<svg width="27" height="27" viewBox="0 0 27 27" fill="none" xmlns="http://www.w3.org/2000/svg">
<path fill-rule="evenodd" clip-rule="evenodd" d="M27 1C27 0.447719 26.5523 3.24915e-06 26 3.17892e-06L1 0C0.447715 -7.02268e-08 0 0.447715 0 1V5C0 5.55228 0.447716 6 1 6L14.3358 6C15.2267 6 15.6729 7.07714 15.0429 7.70711L0.582107 22.1679C0.191583 22.5584 0.191583 23.1916 0.582107 23.5821L3.41053 26.4105C3.80106 26.8011 4.43422 26.8011 4.82475 26.4105L19.2929 11.9424C19.9229 11.3124 21 11.7586 21 12.6495V26C21 26.5523 21.4477 27 22 27H26C26.5523 27 27 26.5523 27 26V1Z" fill="black"/>
</svg>
