<svg width="958" height="400" viewBox="0 0 958 400" fill="none" xmlns="http://www.w3.org/2000/svg">
<path d="M908.812 155.809C912.422 145.929 916.752 134.369 913.972 124.349L913.932 124.199C907.652 99.8794 877.312 91.1994 862.722 101.939C848.602 113.579 862.792 140.609 857.502 155.759C852.782 171.539 835.452 178.429 820.182 179.149C804.482 180.279 790.032 171.909 781.632 158.979C762.812 130.189 759.922 93.5694 727.442 74.5994C696.572 55.9894 653.462 61.5894 627.862 86.7994C609.462 104.689 600.932 130.289 598.642 155.339C596.632 180.259 597.362 207.679 597.502 233.279C598.102 265.609 598.902 304.329 627.772 324.839C648.352 339.019 676.292 345.399 700.052 335.759C719.532 327.869 733.392 310.989 744.452 293.719C763.102 265.919 783.792 222.949 816.962 211.209C827.932 207.789 838.142 213.769 842.662 223.669C846.342 230.849 848.172 238.869 851.372 246.329C855.882 257.259 864.372 267.879 876.532 268.499C883.942 268.819 890.822 264.639 895.092 258.719C909.912 237.209 896.072 210.009 898.612 186.099C899.372 175.839 905.192 165.419 908.812 155.829V155.809Z" fill="white"/>
<path d="M314.999 78.0415C301.989 68.3515 282.189 73.8415 270.919 83.4215C253.029 98.6415 229.559 147.572 200.759 123.782C193.569 117.842 188.729 109.262 183.389 101.652C176.209 91.0215 167.119 81.6215 155.969 75.0815C142.279 67.0115 126.679 62.2515 110.809 63.3315C88.5087 64.9915 69.7587 80.6515 56.8187 97.8315C43.0787 115.922 36.3787 138.312 37.2187 161.002C37.5987 178.252 41.1387 195.092 44.8887 211.892C49.9887 234.532 56.3987 256.612 63.6987 278.442C71.6887 302.462 83.3887 330.602 110.239 337.712C131.409 343.272 158.979 336.702 175.859 322.972C184.459 316.152 190.909 306.822 196.509 297.172C202.309 287.472 208.929 275.412 219.639 271.192C252.829 258.112 244.199 304.172 273.449 307.452C285.429 309.052 299.229 298.842 297.129 285.572C294.839 271.092 279.459 263.482 270.339 253.472C261.499 243.772 254.169 232.692 248.749 220.742C243.329 208.812 235.659 196.722 237.949 182.992C240.839 165.702 256.639 152.922 269.349 142.432C280.759 133.012 295.719 129.362 307.119 120.042C315.249 113.402 323.829 98.7815 321.229 87.4615C320.399 83.8715 318.449 80.6115 315.009 78.0415H314.999Z" fill="white"/>
<path d="M556.314 212.802C554.674 195.952 551.284 173.692 537.074 163.552C529.784 158.372 517.154 152.372 508.024 155.652C496.294 159.872 498.824 173.272 490.784 180.912C487.564 184.052 483.164 186.022 478.634 184.922C463.174 180.952 457.814 158.962 451.214 146.032C444.004 130.332 434.344 113.612 418.674 105.512C393.934 93.392 368.834 107.832 353.654 128.142C331.624 156.622 323.844 200.922 329.994 235.972C338.034 285.192 385.944 319.322 434.134 300.102C453.724 292.322 471.014 275.292 491.924 271.022C505.644 267.902 520.454 271.102 533.634 265.862C554.964 257.492 558.254 233.192 556.314 212.992L556.294 212.802H556.314Z" fill="white"/>
</svg>
