<svg width="64" height="62" viewBox="0 0 64 62" fill="none" xmlns="http://www.w3.org/2000/svg">
<g clip-path="url(#clip0_325_538)">
<path d="M7.50769 34.8634L7.50774 34.8634C7.96077 34.474 8.30548 33.8445 8.57656 33.0753C8.85166 32.2948 9.07016 31.3139 9.23599 30.1616C9.56781 27.8558 9.69657 24.8064 9.61567 21.1776C9.53649 17.6258 10.1708 14.2467 11.2904 11.5325C12.4152 8.80562 14.0025 6.81202 15.7837 5.93182C16.7011 5.47892 17.3039 5.37062 17.6769 5.42905C17.9901 5.47811 18.1976 5.65298 18.3339 6.03282C18.4826 6.44694 18.5244 7.0656 18.4485 7.87775C18.3736 8.67899 18.1894 9.61929 17.9283 10.6474C17.4062 12.7036 16.5904 15.0592 15.784 17.2661C15.5211 17.9855 15.2584 18.691 15.0077 19.3645C14.4943 20.7434 14.0309 21.9881 13.7174 22.9441C12.7906 25.7696 11.7409 29.2379 11.6378 32.7139C11.5343 36.2058 12.3855 39.7411 15.2892 42.6486C16.1131 43.4737 17.3547 44.322 18.8171 45.1779C20.2863 46.0379 22.0102 46.9237 23.8197 47.8178C24.7768 48.2907 25.757 48.7657 26.7378 49.2409C29.4815 50.5703 32.2303 51.9023 34.4922 53.1992L34.4923 53.1993C36.933 54.5978 39.1787 55.9782 40.6326 57.244C41.3632 57.8801 41.8499 58.4506 42.078 58.9426C42.2918 59.4038 42.2656 59.7537 42.0322 60.0747C41.7729 60.4311 41.1781 60.7773 40.2338 61.04C39.3131 61.2962 38.1491 61.4487 36.8705 61.4894C34.3097 61.571 31.3735 61.2019 29.1494 60.3972C28.1403 60.032 27.1633 59.1087 26.1607 57.8421C25.4441 56.9369 24.7513 55.9064 24.0428 54.8527C23.7639 54.4379 23.4826 54.0195 23.1964 53.6038C22.1991 52.1547 21.1461 50.7426 19.986 49.7688C18.8155 48.7864 17.4751 48.2016 15.939 48.5376C15.255 48.6873 14.7274 48.8782 14.376 49.1409C14.1939 49.277 14.0412 49.4456 13.9497 49.6546C13.8559 49.8687 13.8418 50.0899 13.8832 50.3001C13.9599 50.6906 14.2276 51.0433 14.5106 51.341C14.8061 51.652 15.1881 51.9731 15.5942 52.2951C15.832 52.4836 16.0786 52.6731 16.3278 52.8645C16.9527 53.3446 17.5939 53.8373 18.1526 54.3581C18.9471 55.0988 19.4361 55.7771 19.4968 56.3881C19.5499 56.9213 19.2317 57.4704 18.4534 57.8232C17.6751 58.176 16.4897 58.2899 15.0506 57.8971C12.1856 57.115 8.37589 54.3301 5.1462 47.697C1.8985 41.027 0.552305 35.3118 0.501499 31.2438C0.47605 29.2062 0.776014 27.6165 1.29377 26.5308C1.8082 25.4521 2.50483 24.9242 3.28458 24.8438C3.63597 24.8075 3.88129 24.911 4.08587 25.1172C4.31152 25.3446 4.50665 25.7193 4.66255 26.2473C4.97467 27.3043 5.07021 28.7565 5.13105 30.2152C5.13984 30.4259 5.14788 30.6375 5.15589 30.8481C5.20158 32.049 5.24599 33.2167 5.41939 34.0013C5.47182 34.2386 5.54083 34.466 5.63755 34.6609C5.73261 34.8525 5.87474 35.0538 6.09519 35.1807C6.60228 35.4724 7.1225 35.1944 7.50769 34.8634Z" fill="black" stroke="black"/>
<path fill-rule="evenodd" clip-rule="evenodd" d="M16.9697 37.0318C18.797 40.6709 21.8274 43.6025 25.119 44.6825C28.5978 45.8239 30.973 45.9036 32.7246 45.1902C34.4542 44.4857 35.7627 42.9296 36.9317 40.3178C39.2857 35.0584 40.1921 27.6571 34.2826 22.4171C31.1869 19.6721 28.0732 17.9408 25.3696 17.3208C22.6747 16.7027 20.4842 17.1991 19.0126 18.7518C18.6838 19.0989 18.5944 19.3719 18.5846 19.5756C18.5743 19.7901 18.6457 20.0664 18.8853 20.4225C19.3859 21.1666 20.4322 21.9841 21.8557 22.8288C23.2517 23.6572 24.9008 24.4499 26.4977 25.1832C26.9601 25.3956 27.4206 25.604 27.8688 25.8068C28.9481 26.2953 29.9566 26.7518 30.7524 27.1547C33.1509 28.3688 34.5613 30.3621 34.5486 32.4125C34.5355 34.5268 33.0219 36.2813 30.4342 36.9715C29.5475 37.2079 28.6891 36.9182 27.9427 36.4492C27.1953 35.9794 26.4589 35.2685 25.7509 34.4641C24.6442 33.2069 23.5017 31.5955 22.4073 30.052C22.1062 29.6273 21.8087 29.2077 21.5166 28.8021C20.8296 27.848 20.1687 26.9644 19.5395 26.2308C18.9031 25.4887 18.3383 24.9471 17.8509 24.6375C17.3619 24.3268 17.0893 24.3324 16.9285 24.3961C16.737 24.472 16.4016 24.7454 16.041 25.6321C14.5899 29.2004 15.1444 33.3968 16.9697 37.0318ZM24.8688 45.4947C17.7776 43.168 12.1369 33.0302 15.2796 25.3023C17.0228 21.0156 19.9933 25.2045 23.0908 29.5725C25.5776 33.0792 28.1463 36.7014 30.2276 36.1464C34.9013 34.8999 34.8207 30.1634 30.3887 27.9198C29.6096 27.5254 28.6275 27.0809 27.5567 26.5962C22.5364 24.3241 15.5664 21.1694 18.4223 18.156C21.8873 14.4997 28.495 16.1616 34.8207 21.7707C41.1464 27.3797 40.0989 35.2738 37.6814 40.6751C35.2639 46.0764 31.9601 47.8214 24.8688 45.4947Z" fill="black"/>
<path d="M22.0167 4.97415C21.8271 3.9806 22.3077 3.06195 23.5256 2.28033C24.7523 1.49307 26.6462 0.912265 29.0139 0.651759C33.7382 0.131974 40.1786 0.906053 46.4694 3.61583C52.7449 6.31907 56.4928 9.92997 58.8852 13.737C61.285 17.556 62.3381 21.5977 63.1832 25.2081C63.5868 26.9325 63.5938 29.3011 63.2655 32.0301C62.9383 34.7502 62.2825 37.7921 61.3872 40.8456C59.5926 46.966 56.8558 53.0647 53.9333 56.6893C52.5585 58.3944 50.7586 58.9855 48.8791 58.8634C46.9793 58.74 44.9985 57.8837 43.3563 56.6827C41.7087 55.4777 40.4657 53.9731 39.9828 52.617C39.7431 51.944 39.7012 51.3394 39.8508 50.8312C39.9973 50.3337 40.3435 49.8724 40.9924 49.5016C43.9823 47.7934 47.6709 45.5369 50.9603 43.0138C54.2362 40.5011 57.1743 37.6809 58.5974 34.8321C59.9695 32.0855 60.5325 30.2337 60.4419 28.9034C60.3952 28.2159 60.1742 27.664 59.8076 27.2122C59.4488 26.7701 58.9727 26.4514 58.4599 26.187C58.129 26.0164 57.7279 25.9429 57.3143 25.9226C56.8949 25.9021 56.4266 25.9349 55.9374 26.0039C54.9588 26.1418 53.8505 26.4314 52.7957 26.7799C51.7396 27.1288 50.7209 27.5422 49.9196 27.9353C49.5195 28.1316 49.1656 28.3267 48.8853 28.5103C48.6246 28.6811 48.3642 28.8815 48.2216 29.1021C47.9543 29.5155 47.9723 29.9937 48.045 30.4307C48.0952 30.733 48.1872 31.0908 48.2868 31.478C48.3299 31.6458 48.3745 31.819 48.4176 31.9956C48.7117 33.1986 49.0227 34.8415 48.7887 37.1339C48.5614 39.3602 47.1815 41.955 45.1965 43.8213C43.2117 45.6874 40.7238 46.7367 38.2941 46.0913C37.7027 45.9342 37.5451 45.7239 37.4968 45.5724C37.4337 45.3746 37.4703 45.0372 37.7294 44.4773C37.9795 43.9367 38.3864 43.2929 38.8986 42.5355C39.092 42.2496 39.3017 41.9456 39.5212 41.6274C39.8708 41.1207 40.2452 40.5781 40.6174 40.0159C43.0513 36.3397 45.7767 31.2779 43.6719 25.5045C41.5692 19.7368 36.3244 17.4436 31.5616 16.0046C30.538 15.6953 29.527 15.4229 28.5697 15.1649C28.4094 15.1218 28.2507 15.079 28.0937 15.0365C26.9934 14.7389 25.9785 14.4567 25.0871 14.1487C24.1933 13.84 23.4498 13.5142 22.8841 13.1392C22.3209 12.766 21.9637 12.364 21.7913 11.9115C21.602 11.4145 21.6219 11.0662 21.7294 10.8169C21.8391 10.5625 22.0777 10.3237 22.4974 10.1252C23.356 9.71889 24.7842 9.57242 26.5429 9.71074C30.0376 9.98561 34.5017 11.3549 37.4783 13.4147C40.4583 15.4768 42.3268 18.0476 43.6343 20.3356C44.2176 21.3564 44.6867 22.3159 45.0972 23.1555C45.1477 23.2589 45.1974 23.3605 45.2462 23.4602C45.6806 24.3458 46.0751 25.1294 46.4841 25.6215C46.799 26.0003 47.2897 26.1264 47.7579 26.1447C48.2395 26.1635 48.801 26.0738 49.3903 25.9127C50.573 25.5894 51.968 24.9507 53.2597 24.1355C54.5494 23.3216 55.7721 22.3091 56.5844 21.2185C57.3902 20.1367 57.8581 18.8809 57.4113 17.6523C56.6405 15.5326 54.7653 13.3199 52.2508 11.4784C49.7274 9.63033 46.5171 8.12354 43.0154 7.44383C41.2445 7.10009 39.0637 7.07384 36.8092 7.13885C35.7748 7.16868 34.7397 7.21682 33.7132 7.26456C32.4595 7.32287 31.2185 7.38058 30.0074 7.4036C27.8248 7.44509 25.8842 7.36704 24.4415 6.984C22.9985 6.60087 22.2048 5.96007 22.0167 4.97415Z" fill="black" stroke="black"/>
</g>
<defs>
<clipPath id="clip0_325_538">
<rect width="64" height="62" fill="white"/>
</clipPath>
</defs>
</svg>
