<svg width="66" height="64" viewBox="0 0 66 64" fill="none" xmlns="http://www.w3.org/2000/svg">
<path d="M48.5469 21.2754H17.5469C16.7184 21.2754 16.0469 21.947 16.0469 22.7754C16.0469 23.6038 16.7184 24.2754 17.5469 24.2754H48.5469C49.3753 24.2754 50.0469 23.6038 50.0469 22.7754C50.0469 21.947 49.3753 21.2754 48.5469 21.2754Z" fill="white"/>
<path d="M48.5469 30.2754H17.5469C16.7184 30.2754 16.0469 30.947 16.0469 31.7754C16.0469 32.6038 16.7184 33.2754 17.5469 33.2754H48.5469C49.3753 33.2754 50.0469 32.6038 50.0469 31.7754C50.0469 30.947 49.3753 30.2754 48.5469 30.2754Z" fill="white"/>
<path d="M48.5469 39.2754H17.5469C16.7184 39.2754 16.0469 39.947 16.0469 40.7754C16.0469 41.6038 16.7184 42.2754 17.5469 42.2754H48.5469C49.3753 42.2754 50.0469 41.6038 50.0469 40.7754C50.0469 39.947 49.3753 39.2754 48.5469 39.2754Z" fill="white"/>
</svg>
