<svg width="66" height="64" viewBox="0 0 66 64" fill="none" xmlns="http://www.w3.org/2000/svg">
<path d="M27.4531 37.3125C26.442 37.3452 25.429 37.3827 24.418 37.4414C23.4158 37.4996 22.4084 37.5635 21.4062 37.6289C20.4661 37.6903 19.522 37.7037 18.582 37.6523C18.0949 37.6257 17.6992 37.6102 17.457 37.6172C17.4 37.6189 17.2908 37.6229 17.1758 37.6406C17.1304 37.6476 16.9867 37.67 16.8242 37.7344C16.7445 37.7662 16.5753 37.834 16.4023 37.9805C16.22 38.1353 15.9214 38.4726 15.875 39C15.8295 39.5196 16.0567 39.8964 16.2031 40.0781C16.3445 40.2522 16.4952 40.3607 16.5664 40.4062C16.7118 40.4989 16.8513 40.543 16.8945 40.5586L17.1641 40.6406C17.6199 40.7438 18.392 40.8249 19.3672 40.8984C20.3616 40.9735 21.3615 41.0522 22.3555 41.1328C23.3723 41.2152 24.3942 41.2706 25.4141 41.3086C26.4499 41.3471 27.4907 41.3467 28.5312 41.3086L31.3789 41.3555C32.3817 41.4218 33.3872 41.4751 34.3906 41.5312C35.4013 41.5877 36.4063 41.6306 37.4023 41.6602C38.4478 41.6911 39.4989 41.6659 40.5547 41.5664C41.5098 41.4764 42.4719 41.4259 43.4375 41.4141C44.5869 41.3998 45.719 41.2128 46.8242 40.875C47.7042 40.6064 48.3975 40.5003 48.9219 40.5H49.4492C49.4591 40.4995 49.4754 40.49 49.4961 40.4883C49.5023 40.4877 49.5827 40.4827 49.6719 40.4648C49.6994 40.4592 49.7485 40.4568 49.8008 40.4414C49.8465 40.4278 49.9612 40.3849 50.0938 40.3125C50.1551 40.2793 50.6298 40.0276 50.8086 39.4219C51.057 38.5698 50.5178 37.9972 50.3281 37.8398C50.1375 37.6837 49.9477 37.6134 49.8945 37.5938C49.8189 37.5658 49.7511 37.5429 49.7188 37.5352C49.6542 37.5198 49.5979 37.5145 49.5781 37.5117C49.5342 37.5056 49.4952 37.5009 49.4844 37.5H49.4141C49.3178 37.4964 48.9971 37.4931 48.5117 37.4883C47.4659 37.478 46.4164 37.5181 45.3711 37.6055C44.474 37.6802 43.574 37.6546 42.6758 37.5469C41.6271 37.4212 40.5732 37.3552 39.5234 37.3359C38.5117 37.3174 37.5 37.315 36.4883 37.3242C35.4459 37.3337 34.4012 37.3779 33.3594 37.4766C32.4659 37.5612 31.5701 37.5598 30.6758 37.4531C29.6022 37.3251 28.5282 37.2778 27.4531 37.3125Z" fill="white"/>
<path d="M18.821 22.0752C20.2107 22.2941 21.6136 22.4546 23.02 22.5526C24.4433 22.6518 25.8693 22.7092 27.2926 22.7348C28.7462 22.7608 30.2057 22.7971 31.6565 22.8323L35.9482 22.8615C37.4001 22.8448 38.8548 22.8306 40.3085 22.8301C41.7866 22.8297 43.2649 22.875 44.7437 22.9607L48.3918 23.0319L49.0947 23.0117C49.0999 23.0117 49.1304 23.0202 49.1653 23.0214C49.1754 23.0218 49.2089 23.0157 49.2473 23.0191C49.2657 23.0207 49.3041 23.0315 49.3534 23.0395C49.3544 23.0396 49.5449 23.0577 49.7553 23.1569C49.9113 23.2421 50.3191 23.6168 50.5048 23.9443C50.6172 24.4924 50.3472 25.3603 50.1078 25.6322C49.9738 25.7381 49.7529 25.8787 49.6704 25.9144C49.6197 25.9334 49.5301 25.9568 49.496 25.9663C49.4052 25.9901 49.3284 26.0044 49.3096 26.0068L49.169 26.0108C49.06 26.0163 48.6325 26.033 47.916 26.0585C46.4364 26.1111 44.9555 26.1233 43.4734 26.0805C42.0917 26.0406 40.7044 26.0926 39.328 26.2464C37.849 26.4115 36.3651 26.5236 34.8827 26.585C33.4268 26.6453 31.9705 26.6894 30.5138 26.7221C29.035 26.7553 27.5509 26.7514 26.0698 26.6973C24.6931 26.6469 23.3187 26.6985 21.9475 26.8508C21.1719 26.937 20.3918 26.9741 19.6181 26.9762L17.2934 26.8554C16.5574 26.7767 15.6987 26.6207 15.081 26.1569C14.7185 25.8841 14.3567 25.4399 14.2689 24.8202C14.1876 24.2386 14.3839 23.748 14.5803 23.4162L14.9645 22.9128C15.3923 22.4708 15.9391 22.212 16.4999 22.0832C17.2127 21.9203 18.0112 21.9481 18.821 22.0752Z" fill="white"/>
</svg>
