<svg width="40" height="40" viewBox="0 0 40 40" fill="none" xmlns="http://www.w3.org/2000/svg">
<path d="M38.9108 22.9908C38.159 22.075 36.7755 21.6215 35.628 21.9062C35.3124 21.9817 34.9115 22.1063 34.5946 22.1384C34.4835 22.1445 34.3922 22.161 34.2885 22.1015C34.2497 22.075 34.1967 22.0633 34.1567 22.0451C34.1188 22.0277 34.0943 21.9761 34.0641 21.9383C34.0249 21.8971 33.984 21.8619 33.9586 21.8103C33.8161 21.546 33.7468 21.2387 33.6718 20.9466C32.9851 18.1428 29.9856 17.1068 27.4576 18.0972C26.5254 18.3494 25.5746 17.7387 24.7505 17.3741C24.2062 17.1189 23.6865 16.9015 23.0742 16.8155C21.4491 16.5981 19.6893 17.3138 18.9922 18.8754C18.4755 20.0963 18.7291 21.1714 17.2552 21.7864C16.6183 21.9335 16.3979 21.2478 16.1563 20.8129C15.5789 19.8606 14.8499 19.3689 13.6998 19.4231C13.4414 19.4292 13.1547 19.4887 12.9144 19.5056C12.1858 19.6002 11.8207 18.7517 11.4711 18.2695C10.3231 16.3342 8.30193 17.1953 7.18842 16.1927C6.92447 15.8446 7.13244 15.355 7.02824 14.9479C6.94255 14.6024 6.77721 14.237 6.98518 13.9037C7.05494 13.5916 7.15871 12.9809 7.2543 12.5838C7.27798 12.4679 7.36755 12.3759 7.40673 12.2578C7.56519 11.8811 7.80632 11.5378 7.79039 11.1077C7.79082 9.81037 5.94531 9.56124 5.64777 10.8512C5.51902 11.3047 5.74465 11.6867 5.88158 12.1168C5.90354 12.194 5.93756 12.2865 5.96167 12.3642C6.01765 12.5617 5.91732 12.7865 5.93971 12.99C5.96641 13.3924 6.28031 13.8607 6.11109 14.263C6.01937 14.4705 5.73863 15.0174 5.63658 15.2066C5.57328 15.329 5.46434 15.48 5.36444 15.5525C5.20599 15.6745 5.03332 15.6944 4.82491 15.7318C3.4199 15.9861 2.29477 17.3698 2.32146 18.8133C2.33137 19.3832 2.55614 19.9418 2.58369 20.506C2.62417 21.0486 2.374 21.8216 2.86358 22.2039C3.0018 22.299 3.19771 22.3333 3.37339 22.3302C3.98096 22.3302 4.08215 21.9526 4.50628 21.7317C4.96313 21.4986 5.57543 21.615 5.90656 22.0082C6.08783 22.2269 6.1042 22.4696 6.11798 22.74C6.10592 23.7382 6.68076 24.1753 7.16905 24.8797C7.48811 25.3606 7.55658 26.3454 8.10127 26.5029C8.49914 26.6062 8.75146 26.2148 8.96719 25.9417C9.17602 25.6497 9.48691 25.46 9.82708 25.6896C10.6801 26.3966 10.5276 27.6861 11.7914 28.269C12.1914 28.4804 12.6186 28.6383 12.9777 28.9296C13.078 29.0116 13.1323 29.137 13.2382 29.21C13.5814 29.463 14.2634 29.7204 14.6036 29.3905C14.8305 29.1557 14.7974 28.5884 14.9309 28.2473C15.0833 27.7898 15.5729 28.0181 15.867 28.1935C16.1908 28.3779 16.4685 28.5932 16.7988 28.7668C17.7344 29.3119 18.7756 28.9712 19.7212 29.1067C20.1117 29.1735 20.4153 29.4678 20.7292 29.6965C21.0913 29.9903 21.5701 30.1175 22.0033 29.8645C23.7605 29.0181 21.056 25.1375 22.7224 25.0585C23.1056 25.0694 23.6606 25.2512 24.0477 25.3437C24.2333 25.3875 24.4133 25.496 24.6015 25.5286C25.0321 25.6002 25.3696 25.3506 25.5897 25.0242C25.7529 24.7634 25.9453 24.496 26.022 24.1987C26.1141 24.0082 26.3208 23.9392 26.5133 23.917C26.5654 23.9105 26.6145 23.917 26.6571 23.9405C27.4438 24.4366 28.4243 24.9639 28.9336 25.7681C29.2725 26.2786 29.3022 27.075 29.9253 27.341C30.7684 27.6605 31.5215 26.5229 32.1213 26.065C32.4055 25.8562 32.8443 25.4921 33.1323 25.851C33.1392 25.8701 33.1422 25.9014 33.1538 25.9148C33.1698 25.9309 33.2025 25.9357 33.2236 25.9461C33.2925 25.976 33.3248 26.0377 33.3691 26.0976C33.5453 26.3667 33.7235 26.7477 33.9229 26.9856C34.7229 28.0133 35.7111 28.0125 36.7648 28.4916C37.278 28.739 37.6712 29.3684 38.2658 29.5468C38.5289 29.6253 38.7705 29.5954 38.9836 29.4886C40.7305 28.437 39.899 24.2655 38.9151 22.9947L38.9108 22.9891V22.9908Z" fill="#1F2A37"/>
<path d="M2.88468 15.4983C3.06897 15.3654 3.01299 15.1497 2.90707 14.987C2.65819 14.6549 2.62245 14.2109 2.47906 13.8047C2.42265 13.6463 2.31587 13.5074 2.25128 13.3524C2.04589 12.8325 2.21296 12.2322 1.86805 11.7557C0.847555 10.4397 -1.0225 12.3021 0.701585 13.4102C0.783828 13.4679 0.863917 13.5261 0.933673 13.589C1.21356 13.8464 1.44694 14.3455 1.70787 14.6597C1.84222 14.8268 2.03857 14.9405 2.16904 15.1033C2.33567 15.329 2.53633 15.7734 2.87649 15.5043L2.88468 15.4983Z" fill="#1F2A37"/>
</svg>
