<svg width="24" height="24" viewBox="0 0 24 24" fill="none" xmlns="http://www.w3.org/2000/svg">
<path fill-rule="evenodd" clip-rule="evenodd" d="M11.835 1.83594C12.1592 1.86544 12.4657 1.99764 12.708 2.25195L16.1289 5.72168L16.1621 5.75488L16.1738 5.77246C16.4126 6.03935 16.5518 6.37145 16.5518 6.74609C16.5518 6.92971 16.5189 7.1133 16.4482 7.29004C16.3912 7.43269 16.313 7.5592 16.2217 7.66895L16.208 7.68457L16.1426 7.75684L16.126 7.77344L12.7129 11.2012L12.7119 11.2002C12.4656 11.4616 12.1538 11.5884 11.834 11.6162L11.6934 11.6221C11.3623 11.6221 11.0544 11.5146 10.8018 11.3066L10.6973 11.2109C10.4224 10.9359 10.2873 10.584 10.2871 10.208C10.2871 10.0728 10.3055 9.93673 10.3457 9.80371L10.3936 9.67188C10.4601 9.50826 10.5538 9.36135 10.6699 9.2334L10.6777 9.22461L10.6885 9.21289L10.7002 9.20117L12.0518 7.8623C12.0346 7.86222 12.0173 7.86133 12 7.86133C11.2596 7.86133 10.5802 7.99807 9.9541 8.26562C9.31586 8.5385 8.75938 8.91445 8.28027 9.39355C7.8014 9.87249 7.42619 10.4282 7.15332 11.0664C6.88541 11.6931 6.74902 12.3701 6.74902 13.1045C6.74902 13.84 6.88367 14.5184 7.14844 15.1475L7.26074 15.3945C7.52008 15.9318 7.85661 16.4107 8.27246 16.833L8.46875 17.0195C8.83749 17.3534 9.24836 17.6294 9.7041 17.8477L9.9541 17.96C10.5802 18.2275 11.2596 18.3643 12 18.3643C12.7315 18.3643 13.4056 18.2287 14.0303 17.9629L14.042 17.958C14.5968 17.725 15.0886 17.4123 15.5215 17.0205L15.7129 16.8379C16.1909 16.3539 16.5656 15.7966 16.8379 15.1602L16.9326 14.918C17.1378 14.3545 17.2432 13.7519 17.2432 13.1045C17.2432 12.7966 17.3239 12.4851 17.5234 12.2168L17.5312 12.2061L17.54 12.1963L17.5977 12.127L17.6025 12.1211L17.6084 12.1152C17.8868 11.8006 18.2603 11.666 18.6406 11.666C19.02 11.666 19.3891 11.7953 19.6748 12.0898C19.9545 12.3725 20.0801 12.7318 20.0801 13.1045C20.0801 14.0825 19.922 15.0149 19.6025 15.8955L19.5986 15.9082L19.46 16.2578L19.4551 16.2695C19.0416 17.2425 17.7188 18.8477 17.7188 18.8477C16.9795 19.587 16.1173 20.1641 15.1396 20.5771L15.1387 20.5762C14.1563 20.9934 13.1076 21.2012 12 21.2012C10.8867 21.2012 9.83252 20.9943 8.84473 20.5771L8.84375 20.5762C7.87157 20.1629 7.01217 19.5864 6.27344 18.8477L6.27246 18.8467L6.27051 18.8457C5.55753 18.1268 4.99495 17.2975 4.58008 16.3652L4.57324 16.3584L4.53516 16.2686C4.11765 15.2799 3.91211 14.2223 3.91211 13.1045C3.91211 11.9966 4.11833 10.947 4.53613 9.96387V9.96191C4.95466 8.98539 5.53482 8.12436 6.27344 7.38574C7.01162 6.64763 7.86908 6.07046 8.84082 5.65723C9.674 5.30023 10.5548 5.09749 11.4775 5.04199L10.6924 4.2666L10.666 4.24023C10.5462 4.10938 10.4538 3.95954 10.3877 3.79785L10.3867 3.79883L10.3838 3.79199L10.3721 3.7627L10.3672 3.74609L10.333 3.62891C10.3032 3.50999 10.2871 3.3865 10.2871 3.25977C10.2871 2.89419 10.4085 2.54126 10.6777 2.25977L10.6963 2.24121L10.7646 2.17676L10.7822 2.16113C11.0411 1.93925 11.3573 1.8291 11.6934 1.8291L11.835 1.83594Z" fill="#F0F263"/>
</svg>
