<?xml version="1.0" encoding="UTF-8"?>
<svg width="30px" height="20px" viewBox="0 0 30 20" version="1.1" xmlns="http://www.w3.org/2000/svg" xmlns:xlink="http://www.w3.org/1999/xlink">
    <title>soundcloud-2 2</title>
    <g id="Iteration-04" stroke="none" stroke-width="1" fill="none" fill-rule="evenodd">
        <g id="01-Typo-01" transform="translate(-614.000000, -1380.000000)" fill="#FFFFFF" fill-rule="nonzero">
            <g id="soundcloud-2-2" transform="translate(614.000000, 1380.456000)">
                <g id="soundcloud-2" transform="translate(0.000000, 0.544000)">
                    <path d="M0,14.1028568 C0,14.4863875 0.134964108,14.7763719 0.404844324,14.9729462 C0.67473654,15.1694834 0.963240771,15.2389847 1.27035702,15.1814749 C1.55884925,15.1239527 1.76127741,15.0184769 1.8776415,14.8650844 C1.9939576,14.7116919 2.05214564,14.4575955 2.05214564,14.1028568 L2.05214564,9.93222091 C2.05214564,9.63497973 1.95211356,9.38329393 1.7520014,9.17718826 C1.55193724,8.97103313 1.30764105,8.86798029 1.01911282,8.86798029 C0.739908592,8.86798029 0.5002684,8.97103313 0.30016824,9.17718826 C0.10006808,9.38329393 0,9.63496736 0,9.93222091 L0,14.1028568 Z M3.21079457,15.8861679 C3.21079457,16.1642598 3.30619464,16.3727514 3.4969708,16.5118035 C3.68777095,16.6508432 3.93209115,16.7203322 4.22987138,16.7203322 C4.53698763,16.7203322 4.78592783,16.6508062 4.97672798,16.5118035 C5.16750413,16.3727885 5.26291621,16.1642598 5.26291621,15.8861679 L5.26291621,6.16426493 C5.26291621,5.87662932 5.16283613,5.62972777 4.96277197,5.42360973 C4.76267181,5.21750405 4.51837561,5.11441413 4.22987138,5.11441413 C3.95067916,5.11441413 3.71100297,5.21750405 3.51093881,5.42360973 C3.31082665,5.62976486 3.21079457,5.87662932 3.21079457,6.16426493 L3.21079457,15.8861679 Z M6.40763313,16.3463824 C6.40763313,16.6244372 6.5053492,16.8329659 6.70079336,16.9720056 C6.89622552,17.1110207 7.14750572,17.1805467 7.45465796,17.1805467 C7.7524502,17.1805467 7.9967464,17.1110207 8.18752255,16.9720056 C8.3783227,16.8329659 8.47373478,16.6244372 8.47373478,16.3463824 L8.47373478,7.4729717 C8.47373478,7.17576761 8.3736667,6.92167116 8.17359054,6.71074415 C7.97349038,6.4998295 7.73386219,6.39439072 7.45465796,6.39439072 C7.16612973,6.39439072 6.91951754,6.4998295 6.71477337,6.71074415 C6.51004121,6.92167116 6.40765713,7.17576761 6.40765713,7.4729717 L6.40765713,16.3463824 L6.40763313,16.3463824 Z M9.61842769,16.3895272 C9.61842769,16.9168694 9.96276797,17.1805467 10.6514605,17.1805467 C11.3401411,17.1805467 11.6844693,16.9168694 11.6844693,16.3895272 L11.6844693,2.00799408 C11.6844693,1.2026218 11.4471572,0.747216272 10.9725088,0.641740405 C10.6653925,0.565031808 10.3629083,0.656117859 10.0651161,0.914986196 C9.76729981,1.17385453 9.61839169,1.53817401 9.61839169,2.00798172 L9.61839169,16.3895272 L9.61842769,16.3895272 Z M12.8850943,16.8065969 L12.8850943,1.15947708 C12.8850943,0.660926827 13.0293344,0.363710372 13.3178507,0.267815353 C13.9413712,0.114422883 14.5602836,0.0377142857 15.1745281,0.0377142857 C16.5984133,0.0377142857 17.9246423,0.382872068 19.1530953,1.07318763 C20.3815723,1.7635032 21.3750771,2.70549219 22.1335377,3.89915462 C22.8920583,5.09286649 23.3317867,6.40873109 23.4527708,7.84692148 C24.0204672,7.59763399 24.6253757,7.47299643 25.2675322,7.47299643 C26.5704693,7.47299643 27.6849581,7.94758838 28.6109509,8.89677228 C29.5369676,9.84598091 30,10.9869054 30,12.3196076 C30,13.6618906 29.5369676,14.8076117 28.6109509,15.7567956 C27.6849581,16.7059795 26.5751373,17.1805714 25.2814882,17.1805714 L13.1363145,17.166194 C13.0525184,17.1374267 12.9896984,17.0846764 12.9478184,17.0079925 C12.9059383,16.9313087 12.8850943,16.8641191 12.8850943,16.8065969 L12.8850943,16.8065969 Z" id="Shape"></path>
                </g>
            </g>
        </g>
    </g>
</svg>