<svg width="16" height="17" viewBox="0 0 16 17" fill="none" xmlns="http://www.w3.org/2000/svg">
<g clip-path="url(#clip0_716_3064)">
<path fill-rule="evenodd" clip-rule="evenodd" d="M7.40722 10.6747C7.50038 10.4584 7.76503 10.3683 8.00094 10.4046C8.23682 10.3683 8.50146 10.4584 8.59466 10.6747C9.26098 12.2224 10.2719 14.0183 10.5711 14.4303C11.0906 15.1452 12.0911 15.3036 12.806 14.7843C13.5209 14.2648 13.6794 13.2643 13.16 12.5494C12.8607 12.1375 11.4651 10.6211 10.1991 9.50913C9.89594 9.24281 10.1007 8.61249 10.5025 8.57529C12.1803 8.41977 14.2007 8.01338 14.685 7.85605C15.5254 7.58298 15.9853 6.68034 15.7122 5.83993C15.4391 4.99952 14.5365 4.5396 13.6961 4.81267C13.2119 4.97 11.3385 5.82874 9.8897 6.68915C9.54274 6.89519 9.00666 6.50565 9.09538 6.11203C9.46602 4.46826 9.70378 2.42116 9.70378 1.91201C9.70378 1.02836 8.98746 0.312012 8.10378 0.312012C8.06922 0.312012 8.03498 0.313107 8.00094 0.315265C7.96693 0.313107 7.93263 0.312012 7.89808 0.312012C7.01442 0.312012 6.29808 1.02836 6.29808 1.91201C6.29808 2.42116 6.5359 4.46826 6.9065 6.11203C6.99525 6.50565 6.4591 6.89519 6.11217 6.68915C4.66339 5.82874 2.79002 4.97 2.3058 4.81267C1.46539 4.5396 0.562744 4.99952 0.28968 5.83993C0.0166139 6.68034 0.476536 7.58298 1.31694 7.85605C1.80116 8.01338 3.82154 8.41977 5.49936 8.57529C5.90115 8.61249 6.10595 9.24281 5.80278 9.50913C4.53678 10.6211 3.14114 12.1375 2.84187 12.5494C2.32247 13.2643 2.48095 14.2648 3.19584 14.7843C3.91074 15.3036 4.91133 15.1452 5.43073 14.4303C5.73 14.0183 6.74087 12.2224 7.40722 10.6747Z" fill="#B3DBF1"/>
</g>
<defs>
<clipPath id="clip0_716_3064">
<rect width="16" height="16" fill="white" transform="translate(0 0.312012)"/>
</clipPath>
</defs>
</svg>
