<svg width="16" height="17" viewBox="0 0 16 17" fill="none" xmlns="http://www.w3.org/2000/svg">
<g clip-path="url(#clip0_1711_3894)">
<path fill-rule="evenodd" clip-rule="evenodd" d="M7.40722 10.6752C7.50038 10.4589 7.76503 10.3688 8.00094 10.4051C8.23682 10.3688 8.50146 10.4589 8.59466 10.6752C9.26098 12.2229 10.2719 14.0188 10.5711 14.4307C11.0906 15.1457 12.0911 15.3041 12.806 14.7847C13.5209 14.2653 13.6794 13.2647 13.16 12.5499C12.8607 12.1379 11.4651 10.6216 10.1991 9.50962C9.89594 9.2433 10.1007 8.61298 10.5025 8.57578C12.1803 8.42026 14.2007 8.01387 14.685 7.85654C15.5254 7.58347 15.9853 6.68083 15.7122 5.84042C15.4391 5.00001 14.5365 4.54009 13.6961 4.81316C13.2119 4.97048 11.3385 5.82923 9.8897 6.68964C9.54274 6.89568 9.00666 6.50614 9.09538 6.11252C9.46602 4.46875 9.70378 2.42164 9.70378 1.9125C9.70378 1.02884 8.98746 0.3125 8.10378 0.3125C8.06922 0.3125 8.03498 0.313595 8.00094 0.315753C7.96693 0.313595 7.93263 0.3125 7.89808 0.3125C7.01442 0.3125 6.29808 1.02884 6.29808 1.9125C6.29808 2.42164 6.5359 4.46875 6.9065 6.11252C6.99525 6.50614 6.4591 6.89568 6.11217 6.68964C4.66339 5.82923 2.79002 4.97048 2.3058 4.81316C1.46539 4.54009 0.562744 5.00001 0.28968 5.84042C0.0166139 6.68083 0.476536 7.58347 1.31694 7.85654C1.80116 8.01387 3.82154 8.42026 5.49936 8.57578C5.90115 8.61298 6.10595 9.2433 5.80278 9.50962C4.53678 10.6216 3.14114 12.1379 2.84187 12.5499C2.32247 13.2647 2.48095 14.2653 3.19584 14.7847C3.91074 15.3041 4.91133 15.1457 5.43073 14.4307C5.73 14.0188 6.74087 12.2229 7.40722 10.6752Z" fill="#F0F263"/>
</g>
<defs>
<clipPath id="clip0_1711_3894">
<rect width="16" height="16" fill="white" transform="translate(0 0.3125)"/>
</clipPath>
</defs>
</svg>
