<svg width="20" height="20" viewBox="0 0 20 20" fill="none" xmlns="http://www.w3.org/2000/svg">
<path fill-rule="evenodd" clip-rule="evenodd" d="M9.25781 12.9534C9.37426 12.683 9.70507 12.5704 9.99995 12.6157C10.2948 12.5704 10.6256 12.683 10.7421 12.9534C11.575 14.888 12.8386 17.1329 13.2127 17.6478C13.862 18.5415 15.1127 18.7395 16.0063 18.0903C16.8999 17.441 17.098 16.1903 16.4488 15.2967C16.0747 14.7818 14.3302 12.8864 12.7476 11.4964C12.3687 11.1635 12.6247 10.3756 13.1269 10.3291C15.2242 10.1347 17.7497 9.62671 18.355 9.43005C19.4055 9.08871 19.9804 7.96041 19.639 6.9099C19.2977 5.85939 18.1694 5.28449 17.1189 5.62582C16.5136 5.82248 14.1719 6.89591 12.3609 7.97142C11.9272 8.22897 11.2571 7.74205 11.368 7.25002C11.8313 5.19531 12.1285 2.63643 12.1285 2C12.1285 0.89543 11.2331 0 10.1285 0C10.0853 0 10.0425 0.00136905 9.99995 0.00406611C9.95744 0.00136905 9.91457 0 9.87138 0C8.76681 0 7.87138 0.89543 7.87138 2C7.87138 2.63643 8.16865 5.19531 8.63191 7.25002C8.74284 7.74205 8.07266 8.22897 7.63899 7.97142C5.82802 6.89591 3.4863 5.82248 2.88103 5.62582C1.83052 5.28449 0.70221 5.85939 0.360879 6.9099C0.019547 7.96041 0.594449 9.08871 1.64496 9.43005C2.25023 9.62671 4.7757 10.1347 6.87298 10.3291C7.37522 10.3756 7.63122 11.1635 7.25226 11.4964C5.66976 12.8864 3.9252 14.7818 3.55112 15.2967C2.90187 16.1903 3.09997 17.441 3.99358 18.0903C4.8872 18.7395 6.13794 18.5415 6.78719 17.6478C7.16128 17.1329 8.42487 14.888 9.25781 12.9534Z" fill="black"/>
</svg>
