<svg width="1658" height="1556" viewBox="0 0 1658 1556" xmlns="http://www.w3.org/2000/svg">
<path fill="white" d="M1209.23 79.1773C879.592 -58.3735 533.262 -0.0180122 558.298 127.111C574.27 208.216 723.127 201.529 874.863 194.716C960.974 190.849 1048.01 186.943 1112.22 199.013C1289.55 232.361 1437.68 346.986 1475.24 447.025C1512.79 547.06 1252 678.361 1214.45 634.595C1204.03 622.451 1193.45 601.486 1180.22 575.259C1145.75 506.951 1093.26 402.947 978.693 326.146C820.132 219.853 507.183 186.509 553.083 303.22C571.119 349.08 646.335 368.716 737.337 392.47C877.925 429.169 1056.19 475.705 1119.52 643.974C1179.65 803.752 1081.38 941.716 1013.72 1036.71C963.995 1106.52 930.799 1153.12 989.125 1168.13C1126.82 1203.56 1264.52 1051.42 1277.04 932.623C1284.28 863.865 1271.96 817.447 1263.53 785.693C1257.39 762.587 1253.32 747.248 1260.35 736.716C1277.04 711.705 1458.55 642.931 1508.62 667.939C1558.69 692.951 1577.47 730.462 1506.53 868.013C1435.6 1005.57 1210.27 1145.2 1055.89 1230.65C901.499 1316.1 1253.04 1615.17 1407.43 1429.69C1561.82 1244.2 1693.26 810.701 1649.45 629.384C1605.63 448.064 1538.87 216.728 1209.23 79.1773ZM122.59 1201.76C-46.7357 864.888 -19.6127 621.048 84.7028 610.627C140.766 605.025 144.403 696.943 147.43 773.474C150.037 839.341 152.191 893.81 186.933 864.888C223.652 834.314 241.177 712.748 237.005 531.431C232.833 350.111 303.767 185.466 403.911 137.533C567.173 59.4586 467.283 319.361 401.551 490.396C388.325 524.81 376.481 555.627 368.443 579.365C320.458 721.084 262.041 921.162 405.997 1060.79C456.784 1110.07 576.72 1166.36 698.494 1223.52C769.667 1256.93 841.466 1290.63 900.456 1323.4C1026.68 1393.46 1137.25 1464.07 1099.7 1514.09C1062.15 1564.11 870.204 1568.28 751.284 1526.6C700.131 1508.67 656.506 1445.81 612.439 1382.33C554.057 1298.22 494.897 1212.98 416.428 1229.61C337.972 1246.24 379.399 1277.07 431.111 1315.56C470.158 1344.61 515.068 1378.04 518.659 1413.01C527.004 1494.29 291.917 1538.64 122.59 1201.76ZM440.367 928.779C487.676 1020.05 566.135 1093.58 651.359 1120.67C741.425 1149.29 802.923 1151.29 848.271 1133.4C893.051 1115.73 926.93 1076.7 957.196 1011.19C1018.14 879.283 1041.61 693.654 888.608 562.232C808.46 493.388 727.843 449.966 657.845 434.412C588.074 418.912 531.359 431.361 493.26 470.306C484.746 479.009 482.432 485.857 482.178 490.966C481.91 496.345 483.76 503.275 489.964 512.205C502.924 530.869 530.014 551.373 566.87 572.556C603.013 593.334 645.709 613.216 687.051 631.607C693.756 634.591 700.442 637.541 707.065 640.455L722.55 647.248L722.586 647.259C750.518 659.509 776.614 670.955 797.21 681.052C859.308 711.505 895.826 761.498 895.496 812.923C895.155 865.951 855.969 909.955 788.97 927.267C766.015 933.197 743.789 925.931 724.466 914.166C705.114 902.384 686.048 884.552 667.717 864.38C639.064 832.845 609.483 792.431 581.149 753.72C573.353 743.068 565.651 732.544 558.089 722.373C540.301 698.443 523.19 676.283 506.902 657.88C490.424 639.271 475.801 625.685 463.182 617.919C450.52 610.13 443.463 610.271 439.301 611.869C434.342 613.771 425.659 620.627 416.323 642.865C378.753 732.361 393.108 837.611 440.367 928.779ZM644.881 1141.03C461.284 1082.68 315.242 828.416 396.608 634.595C441.741 527.084 518.649 632.142 598.846 741.693C663.23 829.646 729.735 920.494 783.621 906.572C904.628 875.31 902.542 756.513 787.794 700.244C767.622 690.353 742.195 679.205 714.471 667.048C584.492 610.06 404.034 530.939 477.975 455.361C567.687 363.658 738.765 405.341 902.542 546.017C1066.32 686.697 1039.2 884.689 976.606 1020.15C914.016 1155.62 828.477 1199.39 644.881 1141.03Z" />
</svg>
