<?xml version="1.0" encoding="UTF-8"?>
<svg width="300px" height="300px" viewBox="0 0 300 300" version="1.1" xmlns="http://www.w3.org/2000/svg" xmlns:xlink="http://www.w3.org/1999/xlink">
    <title>Logo</title>
    <defs>
        <polygon id="path-1" points="0 0.385 174.416842 0.385 174.416842 257.999843 0 257.999843"></polygon>
    </defs>
    <g id="Logo" stroke="none" stroke-width="1" fill="none" fill-rule="evenodd">
        <g id="Group-8" transform="translate(52.000000, 21.000000)">
            <path d="M194.0105,72.6026 C191.6505,70.6086 189.0505,68.9016 186.5745,67.0426 C184.1615,65.2316 182.9145,62.7316 182.8555,59.7776 C182.8075,57.4136 183.2485,55.0426 183.2655,52.6736 C183.2905,49.1706 183.1325,45.6656 183.0535,42.1616 C183.0485,41.9216 183.0665,41.6806 183.0505,41.4416 C182.9305,39.5876 182.1015,37.4836 179.7065,36.8796 C176.7195,36.1256 173.7005,35.4956 170.6945,34.8196 C170.2855,34.7276 165.9035,33.5286 169.2255,36.2776 C172.5475,39.0276 174.8535,37.0706 176.9775,37.6066 C179.1005,38.1426 177.3615,39.5206 177.9715,41.7576 C178.3905,43.2946 178.5495,44.9116 178.7395,46.5026 C179.0915,49.4356 179.3715,52.3756 179.6995,55.3106 C179.9225,57.3026 180.0515,59.3156 180.4475,61.2736 C181.0395,64.2006 182.4045,66.7316 184.9285,68.4916 C186.9275,69.8866 191.2035,71.2866 190.9465,72.6476 C190.6895,74.0086 188.9005,73.0266 188.1755,72.6246 C185.0655,70.8996 182.0615,68.9806 178.9625,67.2316 C176.7865,66.0036 174.9005,64.5976 174.1365,62.0616 C173.9015,61.2826 173.4215,60.5806 173.1385,59.8116 C171.7905,56.1516 170.2815,52.5356 169.2045,48.7956 C168.4075,46.0306 168.3015,43.0746 167.6775,40.2496 C166.9685,37.0426 165.1975,34.5696 161.9385,33.4936 C159.6305,32.7316 157.2325,32.5096 154.8095,32.6606 C150.6605,32.9186 147.5535,34.8726 145.4085,38.4356 C143.2385,42.0416 143.7015,45.9456 144.0595,49.8346 C144.3095,52.5396 144.6185,55.2386 144.9475,57.9346 C145.2365,60.3116 145.4725,62.7046 145.9525,65.0436 C146.2755,66.6166 146.9425,68.2366 148.4295,69.0486 C150.9055,70.3986 153.4885,71.5516 156.0455,72.7456 C159.0105,74.1276 162.1275,74.8526 165.4125,74.6476 C167.5735,74.5126 169.6655,74.6336 171.6795,75.5636 C174.9245,77.0626 178.3105,77.9026 181.9315,77.8106 C183.4915,77.7706 184.8585,77.0086 187.3355,78.8716 C189.8145,80.7336 187.7025,83.0556 186.6225,84.9146 C185.7415,86.4296 184.7095,87.9146 183.4895,89.1626 C180.4915,92.2256 177.5075,95.2806 174.9285,98.7226 C173.2315,100.9896 172.7105,103.3626 173.7835,106.0066 C174.2405,107.1306 174.7935,108.2156 175.3235,109.3086 C176.5325,111.7986 176.9045,114.0836 174.8155,116.4856 C172.7945,118.8106 171.1185,121.4456 169.3905,124.0116 C168.4465,125.4136 167.4135,127.0726 168.7425,128.6446 C169.5145,129.5566 170.8535,130.0846 172.0315,130.5316 C174.0885,131.3116 175.4895,132.6056 176.1255,134.7276 C176.9205,137.3766 176.7445,140.0616 176.2465,142.7056 C175.7875,145.1476 174.8355,147.4196 173.1145,149.3026 C171.9415,150.5856 170.8475,151.9426 169.6595,153.2116 C167.5495,155.4676 166.8595,156.5696 168.9015,157.8746 C170.9445,159.1806 175.8795,159.4376 175.1725,163.9516 C174.4675,168.4656 172.5735,169.8496 173.9805,172.1816 C175.1245,174.0816 176.6565,175.6296 178.4245,176.9776 C179.1845,177.5556 179.8835,178.2976 180.3945,179.1026 C181.2445,180.4436 181.3655,183.5546 182.8065,183.5546 C184.2455,183.5546 184.7395,181.4026 185.1235,180.2016 C185.6655,178.5086 185.8385,176.6536 185.9005,174.8586 C186.0665,170.0376 186.1615,165.2106 186.1525,160.3866 C186.1365,152.9626 186.0155,145.5386 185.9275,138.1146 C185.8575,132.1696 185.7805,126.2256 185.6805,120.2816 C185.6625,119.1776 185.5355,118.0756 185.4475,116.9736 C185.2885,114.9926 184.7405,113.5206 182.3235,113.2156 C180.4565,112.9796 178.9875,111.7086 178.5555,109.7506 C177.8845,106.7096 178.0025,103.6046 179.5975,100.9216 C180.9305,98.6796 182.7345,96.6906 184.4935,94.7376 C186.8405,92.1346 189.3795,89.7066 191.7695,87.1426 C192.9485,85.8776 194.0935,84.5526 195.0525,83.1196 C197.2345,79.8576 197.2405,75.3316 194.0105,72.6026" id="Fill-1" fill="#000000"></path>
            <path d="M159.275813,138.2187 C159.2835,136.0127 159.1385,133.7837 158.8125,131.6027 C158.1905,127.4467 156.8335,123.4867 155.1675,119.6397 C154.9145,119.0557 154.8445,118.6347 155.1385,118.0357 C155.8425,116.5987 158.3645,115.1817 157.0885,113.6047 C155.8125,112.0277 153.3285,112.5957 151.5625,112.5767 C150.1905,112.5627 148.8915,112.2387 147.9055,111.2677 C146.0505,109.4417 144.3235,107.4817 142.4485,105.6757 C140.9675,104.2487 140.1725,102.4947 139.6805,100.5777 C139.1585,98.5487 139.0505,91.8477 136.0735,95.7227 C133.0985,99.5967 137.3315,104.5677 135.9565,108.4337 C134.5815,112.3007 127.9655,104.3457 123.5245,104.5357 C119.0815,104.7247 128.4365,114.5437 126.8365,116.0967 C125.2375,117.6497 121.9805,112.7147 119.5635,112.4897 C117.1465,112.2647 122.5065,119.1437 120.7245,120.4107 C118.9425,121.6777 114.6375,115.9687 113.2925,113.3677 C112.2375,111.3247 112.0575,109.2557 112.6835,107.0877 C113.1135,105.6007 114.4425,103.5427 113.6235,103.1467 C112.8055,102.7507 111.4125,104.2197 110.4725,105.3277 C109.2125,106.8137 108.2195,108.5267 107.0585,110.1017 C106.8775,110.3467 106.3925,110.5247 106.0775,110.4867 C104.0915,110.2487 102.1935,110.3107 100.6995,111.8817 C99.2065,113.4527 97.2465,114.1647 95.2875,114.8487 C94.4015,115.1577 93.7135,114.5887 93.2095,113.8877 C92.7115,113.1947 92.6635,112.5087 93.3055,111.8277 C94.3295,110.7417 97.5105,109.1677 96.5895,108.2217 C95.6685,107.2767 90.2935,108.3547 87.4025,109.1177 C84.5355,109.8737 82.2135,112.1207 78.2155,110.8667 C74.2175,109.6137 88.9195,103.3557 89.8645,100.5697 C90.8085,97.7827 81.4655,99.1577 77.8155,99.7487 C75.2875,100.1577 72.8725,101.0207 70.7965,102.5087 C68.5625,104.1097 66.5505,106.0177 64.3545,107.6757 C59.6015,111.2607 54.6535,114.5587 49.4195,117.4107 C46.6015,118.9467 40.1195,120.7197 40.7865,123.0927 C41.4535,125.4657 43.7475,124.4787 44.8835,125.0717 C45.5505,125.4197 45.7135,125.8607 45.7205,126.5767 C45.7445,128.8487 45.7415,131.1307 45.9605,133.3887 C46.3945,137.8557 47.9925,141.9417 50.8635,145.3717 C52.7275,147.5977 52.7055,148.0737 54.2565,145.1327 C54.4005,144.8597 54.4685,144.5467 54.5835,144.2567 C55.3815,142.2317 56.0445,140.1377 57.0255,138.2047 C57.8305,136.6177 58.7975,136.6097 60.0105,137.8247 C60.1235,137.9387 60.2375,138.0507 60.3505,138.1637 C62.0415,139.8567 62.1135,139.9187 63.6655,138.1177 C65.7435,135.7057 67.6755,133.1667 69.7095,130.7167 C71.2645,128.8427 73.1893522,125.9597 75.1343522,126.5767 C77.0783522,127.1937 72.708325,131.3147 78.420325,130.7167 C84.133325,130.1187 87.7640186,126.454792 89.8645,125.5507 C91.9649814,124.646608 93.2395,125.0737 93.3425,126.5767 C93.4455,128.0797 91.2735,131.8227 93.3425,132.0237 C95.4105,132.2247 100.4795,129.8287 102.7575,127.5777 C105.1795,125.1837 106.8095,122.3017 108.0235,119.1567 C108.5235,117.8617 108.4285,115.2927 109.5255,115.1157 C110.6205,114.9377 124.5315,138.8197 126.2935,138.6957 C128.0545,138.5707 127.7795,135.4927 126.6545,134.0077 C125.8225,132.9087 124.8585,131.9127 123.9955,130.8357 C123.3795,130.0647 122.7555,129.2547 123.3655,128.1747 C124.2485,126.6127 124.5595,123.2137 126.0575,123.4097 C127.5565,123.6057 129.426813,128.1747 132.692813,128.1747 C134.098949,128.1747 132.4665,125.5507 136.0735,125.5507 C139.6805,125.5507 140.672356,126.070355 141.866923,127.071355 C143.061489,128.072355 144.8485,129.9567 146.1655,131.8327 C146.9555,132.9567 148.8155,134.8197 149.5745,134.3247 C150.3345,133.8307 148.7325,129.8957 150.7385,129.1617 C152.7455,128.4277 157.4905,142.1277 158.3835,142.0527 C159.275813,141.9787 159.2705,139.4987 159.275813,138.2187 Z" id="Fill-3" fill="#000000"></path>
            <g id="Group-7" transform="translate(0.000000, 0.615000)">
                <mask id="mask-2" fill="white">
                    <use xlink:href="#path-1"></use>
                </mask>
                <g id="Clip-6"></g>
                <path d="M150.2994,151.0228 C149.2614,149.3638 148.8484,149.2848 147.1894,150.3878 C144.2374,152.3498 142.5574,155.1868 141.5824,158.5148 C140.7854,161.2428 140.1044,164.0128 139.1414,166.6818 C138.4744,168.5298 137.4014,168.6328 136.0304,167.2238 C135.5124,166.6928 134.9374,166.1298 134.6604,165.4668 C133.7224,163.2178 131.8964,162.4978 129.6964,162.3728 C128.6194,162.3108 127.5084,162.5188 126.4684,162.3168 C125.4344,162.1158 124.3564,161.7138 123.5034,161.1078 C122.5144,160.4038 123.5524,159.7508 123.9804,159.3118 C124.9114,158.3568 126.0354,157.5908 126.9984,156.6638 C128.1934,155.5118 127.6924,152.1068 126.8024,150.5908 C126.4804,150.0418 126.1074,149.7418 125.7444,149.8848 C125.0694,150.1538 124.8884,150.7318 124.8244,151.3828 C124.7584,152.0438 124.8124,152.7818 124.5894,153.3498 C123.6654,155.7168 121.8364,157.2218 119.6344,158.3228 C117.7414,159.2688 115.8584,160.2468 113.9074,161.0578 C113.3164,161.3038 112.4634,161.1988 111.8194,160.9858 C108.8214,159.9948 105.8704,158.8588 102.8704,157.8728 C100.6224,157.1348 98.3284,157.1078 96.0004,157.6648 C95.2404,157.8478 94.1844,158.3238 93.5294,157.5778 C92.8734,156.8308 93.2434,152.0878 91.8214,151.9668 C90.4004,151.8468 89.2524,153.9308 89.5544,155.8528 C89.7064,156.8238 89.6894,157.8198 89.8114,158.7958 C90.2214,162.0688 92.4184,162.8608 95.4944,162.4568 C98.0384,162.1238 103.1354,162.7298 102.5674,164.1478 C101.9984,165.5648 98.7754,165.3728 96.8694,165.6878 C92.2004,166.4588 87.3844,166.2478 82.8344,167.8608 C79.6134,169.0018 77.1974,170.6268 76.4144,173.4378 C75.6304,176.2478 75.7844,179.7908 73.8454,179.7908 C71.9074,179.7908 68.0984,172.1588 65.5994,169.9008 C63.7864,168.2628 61.8674,166.6868 60.3554,164.7938 C59.2914,163.4618 58.9274,161.5928 58.0794,160.0588 C56.7354,157.6288 55.3174,155.2338 53.7944,152.9138 C52.9514,151.6278 51.3894,151.7048 50.0504,151.5878 C48.6614,151.4678 47.2554,151.5688 45.8574,151.5588 C44.9894,151.5518 44.5844,150.9548 44.6484,150.0708 C44.7414,148.7948 44.7594,147.5108 44.7414,146.2308 C44.7224,144.9208 43.7584,144.6518 42.7194,144.6118 C40.9664,144.5418 38.5394,146.5768 37.4574,144.4998 C36.3744,142.4238 40.1484,141.4318 41.6224,140.1828 C42.9154,139.0868 43.5794,137.0298 42.7344,135.3618 C41.4804,132.8838 40.1384,130.4328 38.5894,128.1358 C38.1144,127.4318 36.8494,127.2358 35.9234,126.8668 C33.1784,125.7698 32.4484,122.5018 34.5174,120.4028 C36.9564,117.9268 40.0924,116.7488 43.3684,116.0858 C47.1394,115.3228 50.3604,113.6678 53.1624,111.0918 C56.3214,108.1878 58.7044,104.6428 61.3654,101.3158 C64.7984,97.0198 69.2444,94.0938 74.7274,93.0228 C76.6104,92.6558 78.1474,92.0598 81.5274,92.0958 C84.9084,92.1328 84.7594,93.0938 85.8934,94.0338 C87.0274,94.9748 89.1014,96.0868 91.1304,95.8118 C92.4874,95.6278 93.8294,95.3318 95.1894,95.1758 C96.5964,95.0138 96.6794,99.4638 98.8134,98.6148 C100.9474,97.7658 104.4444,95.8448 107.1814,94.4268 C108.5684,93.7078 109.8554,92.7948 111.2434,92.0788 C113.3694,90.9818 114.2994,89.0018 115.2004,86.9818 C115.4374,86.4488 115.5864,85.8768 115.8094,85.3358 C116.8024,82.9308 116.3854,81.8408 114.3834,80.1938 C112.8874,78.9628 108.3314,75.8328 110.3734,75.8328 C112.4164,75.8328 113.4314,77.0338 114.7594,77.9308 C117.0324,79.4658 119.1754,81.1978 121.3124,82.9238 C124.3284,85.3598 124.7494,88.4958 123.7434,92.0708 C123.2304,93.8908 122.3094,96.5848 122.2784,97.2928 C122.2474,98.0008 122.7444,98.0808 123.1614,97.9718 C123.5764,97.8628 127.4214,95.1298 129.5214,93.6648 C131.0364,92.6058 131.8864,91.3028 134.8484,91.5698 C137.8104,91.8368 139.4104,89.4558 140.3024,88.4598 C141.1944,87.4638 141.5084,91.0878 141.0814,92.5748 C140.3864,94.9978 140.5974,97.4028 141.3744,99.7478 C142.2294,102.3288 143.9404,104.3658 145.9664,106.0858 C147.3004,107.2188 148.9014,108.0308 150.2804,109.1168 C152.1354,110.5788 154.2274,110.1648 156.2074,109.8708 C158.6084,109.5138 162.6604,108.3178 162.9374,111.0458 C163.2134,113.7738 160.4424,113.8498 159.2504,115.3118 C159.0124,115.6048 158.9044,116.1868 159.0114,116.5538 C160.3324,121.0468 161.8074,125.4978 163.0274,130.0188 C163.7474,132.6898 164.3804,135.4498 164.5164,138.1968 C164.6644,141.1998 163.5154,143.9768 161.4064,146.2218 C159.1174,148.6588 156.7094,150.9558 153.4484,152.0768 C153.0434,152.2148 152.6434,152.3738 152.2294,152.4728 C151.5984,152.6218 151.0574,152.5618 150.8064,151.8098 C150.7094,151.5238 150.4654,151.2888 150.2994,151.0228 Z M144.6224,194.8788 C145.1624,196.8878 142.2854,194.9628 138.0484,194.3338 C133.8124,193.7058 125.3124,196.0398 122.3504,196.1468 C119.3894,196.2528 117.7364,193.6598 114.1394,193.4758 C110.5434,193.2928 111.8974,200.5798 109.0914,200.6798 C106.2864,200.7808 108.7354,195.0748 105.4224,193.4768 C102.1104,191.8788 100.4924,200.2078 98.7214,198.7108 C96.9504,197.2138 100.9574,191.4528 97.0104,190.1898 C93.0634,188.9268 83.8464,193.0028 81.3184,192.1578 C78.7914,191.3118 86.1604,189.6148 87.7644,189.1168 C90.6184,188.2318 97.4104,183.9328 97.3154,181.2828 C97.2204,178.6328 98.2084,177.2918 99.6644,177.1758 C101.1204,177.0608 100.8694,178.4008 102.4914,177.8598 C104.1124,177.3198 101.8034,176.5498 105.1924,175.2968 C108.5804,174.0428 108.3554,173.7848 110.1804,172.4698 C112.0054,171.1558 113.3004,170.0968 113.7294,173.3588 C114.1594,176.6208 118.9114,174.2648 121.8894,174.5858 C124.8664,174.9088 124.4404,176.0948 124.3804,178.7858 C124.3214,181.4758 127.5644,180.5088 127.6644,178.9838 C127.7484,177.7298 131.6784,179.8228 131.8684,180.6308 C132.0564,181.4398 130.031148,181.838683 128.820148,182.061683 C125.297148,182.708683 120.3654,183.164186 113.7294,183.825186 C107.0944,184.486186 105.4224,182.9396 102.4914,182.9396 C99.5604,182.9396 100.767553,184.687855 102.4914,185.474599 C104.215247,186.261342 108.20841,187.425284 118.03941,186.862284 C125.54341,186.431284 124.279805,184.600186 126.994805,183.825186 C129.708805,183.048186 133.4764,183.1588 133.8744,183.3128 C134.2724,183.4668 134.2174,184.8148 134.3404,184.9988 C136.4854,188.1998 140.1794,188.4838 143.3074,188.6838 C146.4364,188.8828 146.2314,191.8558 144.5614,191.7598 C142.8924,191.6638 144.0824,192.8698 144.6224,194.8788 Z M10.7594,117.5348 C8.9314,118.2328 5.7294,120.1038 4.9984,118.8018 C4.2684,117.4988 6.7024,115.9568 8.3064,115.3548 C11.7004,114.0808 15.1604,112.9808 18.5514,111.6998 C22.7394,110.1168 25.2514,107.0328 26.0234,102.6348 C26.5184,99.8178 26.7754,96.9588 27.1874,94.1258 C27.5434,91.6848 29.1454,90.2858 31.3964,89.7458 C35.2804,88.8138 37.1394,86.1768 37.7714,82.4908 C38.4804,78.3588 39.0634,74.2048 39.7114,70.0618 C39.8564,69.1348 40.0234,68.2088 40.2094,67.2888 C40.6254,65.2308 39.8274,63.6778 37.7304,62.5078 C36.2274,61.6688 34.7454,62.0058 33.1504,63.4338 C30.8374,65.5048 28.5604,67.6978 25.6074,68.7988 C23.3944,69.6238 21.0674,70.3768 18.7384,70.5918 C16.4924,70.7988 14.3704,69.9538 14.5414,66.6658 C14.6044,65.4408 14.7764,64.2168 14.7634,62.9938 C14.7224,59.0908 14.6554,55.1868 14.5264,51.2858 C14.4244,48.1958 14.2384,45.1088 14.0514,42.0228 C13.9104,39.7028 12.0474,36.1698 13.5084,34.6988 C14.9704,33.2278 17.5164,35.0978 19.3414,35.5848 C21.3244,36.1138 21.3744,38.1468 21.9764,39.7188 C22.7414,41.7128 23.3714,43.7918 24.4084,45.6388 C25.4524,47.4968 27.1494,48.8408 29.4224,48.9388 C30.8324,49.0008 32.1534,48.5518 33.2444,47.5318 C34.5724,46.2898 35.8654,44.9808 37.3404,43.9368 C39.5964,42.3408 42.1984,42.0568 44.8814,42.5628 C46.9034,42.9458 51.8854,42.8208 51.6764,47.5728 C51.4684,52.3248 45.6754,71.1658 43.7774,78.5788 C41.8124,86.2538 39.9104,93.9488 37.7664,101.5738 C36.5484,105.9018 33.4384,108.6638 29.2854,110.2848 C23.1074,112.6958 16.9534,115.1678 10.7594,117.5348 Z M41.6634,35.4158 C44.3554,36.1498 47.2974,36.3608 50.1244,36.7638 C52.4184,37.0908 54.7294,37.3028 57.0334,37.5608 C58.6354,37.7388 60.2564,37.8068 61.8344,38.1068 C63.7824,38.4768 64.6064,39.9988 65.0584,41.7608 C66.1944,46.1818 67.4964,50.5698 68.3894,55.0398 C69.2114,59.1588 68.4924,63.2248 67.2584,67.2528 C66.4394,69.9268 64.5334,70.8648 63.9714,76.1898 C63.4104,81.5148 64.8674,83.0408 64.3704,86.7848 C64.0414,89.2578 63.0134,89.7978 57.2244,93.3128 C51.4364,96.8288 53.3374,103.1218 50.0244,102.7218 C46.7114,102.3228 49.1904,87.6028 54.0784,81.9568 C58.9674,76.3108 57.8824,75.5758 59.2814,67.9458 C60.6814,60.3148 62.0124,47.2328 61.9564,45.2328 C61.8664,42.0228 59.9594,39.9548 56.6144,39.9438 C50.7594,39.9258 43.8154,39.8208 39.8274,39.4148 C35.8384,39.0098 32.3874,35.9478 34.0324,34.6818 C35.6764,33.4148 38.9714,34.6818 41.6634,35.4158 Z M72.9064,61.4878 C74.2004,58.3098 73.9194,55.0858 71.8154,52.2678 C70.3644,50.3238 68.7414,45.8998 71.3184,45.8998 C73.8964,45.8998 77.1924,53.0048 78.1994,55.2338 C79.6444,58.4358 79.1524,61.6238 77.3664,64.6648 C76.1244,66.7808 74.3294,66.2508 74.4344,68.9568 C74.5384,71.6638 75.5764,72.4858 77.6164,73.3798 C79.6554,74.2738 79.4944,76.6848 79.4434,79.2528 C79.3924,81.8208 82.4764,88.4068 79.4944,88.4208 C76.5114,88.4358 72.9164,89.3628 70.7294,88.9548 C68.5424,88.5468 69.8204,85.8658 70.0804,84.1228 C70.3734,82.1678 70.1594,80.1348 70.1484,78.1358 C70.1194,72.4288 70.7234,66.8528 72.9064,61.4878 Z M85.2914,47.2218 C87.0264,47.8958 85.0864,51.9218 84.9404,54.2438 C84.8494,55.6978 84.6274,57.1438 84.5434,58.5978 C84.3534,61.8818 84.2174,65.1688 84.0474,68.4538 C84.0314,68.7628 83.9344,69.0688 83.8664,69.3728 C83.5494,70.7718 83.8284,71.4998 85.0354,72.2648 C87.7234,73.9688 88.8254,76.6578 89.5604,79.5648 C89.9644,81.1628 90.2134,82.9458 91.9644,83.5938 C93.6334,84.2128 94.5844,85.3808 95.5094,86.7798 C96.5304,88.3238 96.8594,88.9548 95.7524,90.7348 C94.6464,92.5158 92.7444,92.1398 91.8634,92.0048 C90.3884,91.7778 89.2544,91.0438 88.2814,89.9318 C86.4924,87.8888 84.6804,85.8708 84.1324,83.0838 C83.8604,81.7038 83.5894,80.3208 83.3764,78.9298 C82.8684,75.6128 79.8164,73.2758 79.2804,70.4508 C78.7444,67.6258 80.2914,66.2628 81.1614,64.3408 C82.6994,60.9378 81.9124,57.5258 81.0644,54.1248 C80.4984,51.8588 76.6574,47.2218 79.3944,47.2218 C82.1324,47.2218 83.5574,46.5478 85.2914,47.2218 Z M89.5964,52.3438 C90.8544,52.3438 93.2024,58.2348 93.3874,61.6078 C93.4764,63.2498 93.4414,64.9008 93.3944,66.5458 C93.2704,70.9538 95.0134,74.7028 97.4494,78.2058 C100.0854,81.9958 104.2164,83.8338 104.4654,87.2708 C104.7154,90.7068 103.3374,91.2338 102.1944,91.7218 C101.0204,92.2228 100.0064,91.6588 99.8874,90.3688 C99.4984,86.1558 97.3854,82.7878 94.7934,79.6248 C92.6564,77.0178 90.6034,74.3578 89.4114,71.1328 C88.3324,68.2118 88.1424,65.2528 88.6204,62.1958 C88.7404,61.4308 88.5124,60.6118 88.4544,59.8158 C88.3444,58.2818 88.0624,56.7308 88.2024,55.2188 C88.2864,54.3058 88.3374,52.3438 89.5964,52.3438 Z M164.4544,149.6748 C166.6474,147.8908 168.6634,145.9398 170.1064,143.4928 C170.9964,141.9818 171.7964,140.4028 172.4724,138.7848 C173.1764,137.0978 172.7294,135.5958 171.4354,134.2618 C169.6704,132.4408 167.8534,130.6378 166.3444,128.6138 C165.4714,127.4428 163.0764,125.2358 165.2314,122.7588 C167.3854,120.2828 168.6244,120.0498 170.4114,118.4958 C170.5914,118.3378 170.7594,118.1648 170.9204,117.9878 C172.5434,116.2138 172.3894,115.5928 170.3264,114.4468 C166.6534,112.4058 165.2694,109.0038 167.1904,104.6398 C169.5064,99.3788 171.7364,94.0798 173.9734,88.7848 C175.0414,86.2558 174.2344,84.0958 170.9614,82.7248 C167.1494,81.1258 163.2894,79.6038 159.6174,77.7208 C156.9754,76.3668 154.3434,76.2118 151.6024,76.7308 C148.7794,77.2648 146.2504,76.4638 143.7584,75.3588 C142.1614,74.6498 140.6434,73.7558 139.0274,73.0968 C136.1844,71.9378 134.3814,69.5658 134.4184,66.4738 C134.4834,61.1438 134.7864,55.8178 134.8394,50.4888 C134.8654,47.8828 134.5064,45.2748 134.4044,42.6648 C134.2884,39.7188 135.5554,38.1438 138.3164,37.2878 C140.0274,36.7568 143.1654,36.5398 143.5684,35.2578 C143.9704,33.9758 140.8264,34.5038 139.4824,34.4858 C136.0154,34.4388 132.5284,34.4008 129.0824,34.7218 C125.8254,35.0258 122.6264,35.9678 119.3694,36.2898 C117.4024,36.4838 115.3264,36.2458 113.3764,35.8308 C107.3914,34.5588 101.5894,35.0148 95.8734,37.1398 C94.3844,37.6928 92.8374,38.0918 91.3074,38.5288 C89.2724,39.1088 84.5554,39.8138 82.8044,36.5528 C81.0524,33.2908 86.8344,30.2008 90.5894,30.1468 C94.3344,30.0918 98.0824,30.2698 101.8294,30.3458 C102.1894,30.3528 102.5484,30.3448 102.9084,30.3628 C107.4944,30.6018 112.0834,30.8148 116.6684,31.0948 C119.7014,31.2798 122.7314,31.5188 125.7544,31.8128 C129.3154,32.1608 132.8594,32.7348 136.4254,32.9558 C140.5694,33.2108 145.9514,32.2898 148.0714,31.8798 C150.1924,31.4688 153.7654,30.1288 153.0214,29.5698 C152.2774,29.0118 147.7794,30.4198 145.2404,30.1668 C142.7014,29.9148 144.5364,27.3848 143.5334,26.2008 C142.5284,25.0168 141.5234,25.3198 140.9264,25.3678 C137.0594,25.6778 134.5564,23.4538 132.2354,20.8658 C130.7074,19.1618 129.2924,17.3538 127.7354,15.6798 C125.4294,13.1998 123.0204,10.8168 120.6944,8.3568 C117.4164,4.8908 113.2444,3.0648 108.7724,1.8238 C106.8774,1.2978 103.8824,0.5388 101.2214,0.3958 C98.5604,0.2538 98.8954,1.5268 98.2154,2.4148 C97.5344,3.3018 96.4214,3.4368 95.2034,3.4498 C92.3544,3.4788 89.5194,3.4658 86.7304,4.1948 C82.7904,5.2248 79.0544,6.5608 76.8484,10.3528 C76.4784,10.9908 76.0874,11.6658 75.9394,12.3728 C75.3684,15.0998 73.8264,17.3148 72.3064,19.5418 C70.1784,22.6608 67.6884,25.4378 64.4894,27.4998 C60.7274,29.9258 56.5564,31.0638 52.1494,30.5268 C49.1944,30.1668 46.2974,29.2128 43.4204,28.3668 C39.8204,27.3088 36.1944,27.2918 32.5204,27.6958 C31.5404,27.8038 30.5244,27.7058 29.5714,27.9138 C27.0804,28.4578 26.4624,29.5678 27.1764,32.1018 C27.5244,33.3368 28.0264,34.5268 28.3834,35.7598 C28.4814,36.0978 28.9514,37.0288 28.6584,37.2768 C28.3654,37.5248 27.4694,36.9708 27.1894,36.8098 C24.5784,35.3088 22.0234,33.7078 19.3894,32.2518 C17.7624,31.3528 16.2024,30.2338 14.1604,30.3368 C12.8564,30.4028 11.5204,30.7108 10.3254,32.2238 C9.1294,33.7358 11.1424,39.7068 11.1554,42.7128 C11.1754,47.6158 10.9584,52.5188 10.9584,57.4208 C10.9584,63.6978 9.3864,69.5068 6.3274,74.9818 C5.1954,77.0108 4.2284,79.1868 3.5654,81.4098 C2.5884,84.6838 2.8294,88.0638 3.6704,91.3528 C4.4714,94.4858 4.9984,100.8558 6.3604,100.7938 C7.7214,100.7318 9.0684,98.5908 10.1014,98.9578 C11.1354,99.3258 10.9514,104.2708 9.2304,106.5248 C7.8784,108.2988 6.1454,109.7768 4.6474,111.4448 C2.4344,113.9098 0.3254,118.7788 0.1394,119.9978 C-0.0466,121.2158 -0.0836,123.1018 0.2604,124.6648 C0.6044,126.2288 2.7054,131.5568 4.7464,134.6298 C6.2094,136.8338 9.7194,140.9758 9.9164,142.6018 C10.1134,144.2268 9.6084,149.5108 9.9544,153.3308 C10.3014,157.1528 12.5464,163.8658 13.3254,169.2778 C14.1044,174.6898 15.8544,181.1248 17.1834,187.0348 C17.5584,188.7048 20.4164,195.7348 20.1474,191.0858 C19.8794,186.4388 23.7414,187.7108 25.3434,183.3598 C26.9454,179.0068 20.8314,173.7868 31.8254,170.8108 C42.8184,167.8348 35.7764,181.4598 34.5304,184.1268 C33.7824,185.7298 31.3904,188.4958 31.3904,188.4958 C28.3144,191.6068 23.7414,191.0378 22.0234,195.9298 C20.3054,200.8228 21.8664,203.6348 22.8584,205.8398 C23.8514,208.0458 27.2964,213.2298 29.3964,215.7308 C29.6404,216.0208 30.0744,216.2548 30.4154,216.1018 C30.7584,215.9488 30.6544,215.5208 30.5804,215.1558 C30.2844,213.6638 29.8694,212.1938 29.5984,210.6978 C29.4364,209.8098 29.0074,208.3708 30.2974,207.2748 C31.5884,206.1778 35.4894,207.0508 37.8474,207.2858 C40.3464,207.5348 47.6294,209.5348 48.2644,205.6858 C48.9004,201.8358 44.4424,205.7928 43.8164,202.8198 C43.1894,199.8458 43.6114,197.2308 49.0884,194.0808 C54.5654,190.9328 55.9564,198.0618 56.2234,199.8508 C56.4914,201.6388 56.6004,202.1148 56.4954,204.4788 C56.3904,206.8428 49.2914,205.4328 50.3634,210.6128 C51.4344,215.7908 58.6304,216.3478 62.7294,218.9788 C67.4184,221.9888 70.8104,226.1258 73.7744,230.7498 C75.6964,233.7478 77.7004,236.7278 79.9984,239.4348 C81.9034,241.6788 84.4614,243.2268 87.3084,244.2128 C91.6064,245.7028 95.4674,247.9858 98.9814,250.8668 C101.2024,252.6878 103.3554,254.6008 105.6654,256.2978 C106.6884,257.0478 107.3484,257.6698 109.2234,257.8808 C111.0984,258.0928 112.0034,257.9758 113.0584,257.8808 C114.1134,257.7878 116.1634,257.0828 117.5144,256.3238 C120.0924,254.8728 122.5774,253.2368 124.9974,251.5308 C127.6964,249.6288 131.7624,249.7448 135.1214,246.4468 C138.4814,243.1488 140.3204,241.1628 142.8594,238.4638 C144.3954,236.8328 145.0724,234.8148 145.1834,232.5838 C145.3834,228.5568 146.2594,224.6848 147.7994,220.9518 C149.5394,216.7348 151.9764,212.9778 154.9614,209.5458 C156.3544,207.9448 157.7624,206.3308 158.9244,204.5658 C159.5554,203.6088 159.9664,202.3278 159.9934,201.1818 C160.1054,196.1848 160.0644,191.1838 160.0304,186.1838 C160.0154,184.0388 159.5844,180.3048 159.4094,178.6598 C159.2334,177.0128 158.6454,175.3138 159.6334,173.7358 C161.2134,171.2148 162.8854,168.7518 164.4364,166.2138 C165.8034,163.9768 165.3064,160.9138 163.1094,160.2208 C162.3684,159.9878 161.4654,159.9728 160.7044,160.1498 C157.7044,160.8448 154.7344,161.6648 151.7444,162.4098 C151.4914,162.4728 151.0634,162.6468 150.9014,162.2698 C150.7394,161.8938 150.9694,161.5098 151.1774,161.3128 C153.2194,159.3728 155.2574,157.4268 157.3784,155.5758 C159.6914,153.5558 162.0734,151.6148 164.4544,149.6748 Z" id="Fill-5" fill="#000000" mask="url(#mask-2)"></path>
            </g>
        </g>
    </g>
</svg>