<svg width="84" height="79" viewBox="0 0 84 79" fill="none" xmlns="http://www.w3.org/2000/svg">
<g clip-path="url(#clip0_116_1574)">
<path d="M9.74642 44.3231L9.74647 44.3231C10.3119 43.8512 10.7544 43.0761 11.1078 42.1029C11.465 41.1188 11.7503 39.8777 11.9673 38.4139C12.4014 35.4852 12.5704 31.6071 12.4643 26.9867C12.3601 22.4458 13.1951 18.123 14.6721 14.6468C16.154 11.1592 18.2555 8.58217 20.6418 7.43746C21.8549 6.85611 22.685 6.69972 23.2273 6.78219C23.7116 6.85583 24.0208 7.12777 24.212 7.64477C24.4166 8.19828 24.4695 9.00803 24.3693 10.0488C24.2702 11.0785 24.0268 12.2834 23.6833 13.5968C22.9963 16.2234 21.9235 19.2301 20.8649 22.0425C20.5189 22.9616 20.1737 23.8617 19.8444 24.7204C19.1713 26.4757 18.5646 28.0577 18.1539 29.2734C16.9376 32.8734 15.5655 37.2774 15.4308 41.6872C15.2956 46.1146 16.4074 50.5805 20.1828 54.2505C21.25 55.2881 22.8655 56.361 24.7818 57.4499C26.7052 58.5429 28.9637 59.6695 31.3378 60.8084C32.591 61.4096 33.8756 62.0139 35.1618 62.6189C38.7646 64.3136 42.3802 66.0144 45.3542 67.6699L45.3543 67.6699C48.5569 69.4516 51.5172 71.2171 53.4383 72.8409C54.4031 73.6564 55.0599 74.3989 55.3714 75.0514C55.5243 75.3714 55.5851 75.6514 55.5735 75.8977C55.5621 76.1387 55.4803 76.3777 55.2977 76.6214C54.9268 77.1165 54.1024 77.5699 52.8523 77.9075C51.627 78.2385 50.0849 78.4339 48.3979 78.4861C45.0203 78.5905 41.1444 78.1186 38.201 77.0847C36.8313 76.6036 35.5265 75.3973 34.2088 73.7811C33.2646 72.6232 32.3504 71.3032 31.4193 69.9587C31.0539 69.4312 30.686 68.9 30.3126 68.3732C29.0034 66.5265 27.631 64.7419 26.1255 63.5151C24.6091 62.2795 22.9015 61.5662 20.9563 61.9793C20.0656 62.1684 19.4011 62.4058 18.9677 62.7203C18.7447 62.8821 18.5628 63.0787 18.4543 63.3192C18.3431 63.5656 18.3256 63.8217 18.3755 64.0681C18.4687 64.5285 18.7969 64.9544 19.1635 65.3289C19.5438 65.7174 20.0381 66.1213 20.5701 66.5307C20.8782 66.7678 21.1994 67.0074 21.5251 67.2504C22.3475 67.8637 23.1983 68.4983 23.9372 69.1671C24.9838 70.1144 25.6603 71.0084 25.7452 71.8369C25.8216 72.5823 25.3573 73.3303 24.2896 73.8002C23.2247 74.2688 21.6268 74.4112 19.7091 73.903C15.8883 72.8905 10.8603 69.3014 6.61129 60.8296C2.34259 52.3186 0.568953 45.018 0.501977 39.8118C0.468444 37.2053 0.863109 35.1587 1.55451 33.7512C2.24148 32.3528 3.19261 31.6294 4.29349 31.5192C4.80783 31.4677 5.17862 31.6187 5.47886 31.9124C5.79942 32.226 6.06355 32.7281 6.27061 33.4089C6.68547 34.7728 6.81088 36.6384 6.89063 38.4945C6.90223 38.7646 6.91285 39.0352 6.9234 39.304C6.9835 40.8357 7.04133 42.3095 7.2662 43.2974C7.33387 43.5947 7.42165 43.8734 7.54192 44.1087C7.6609 44.3416 7.83118 44.5701 8.08337 44.7109C8.64679 45.0256 9.24509 44.7413 9.74642 44.3231Z" fill="black" stroke="black"/>
<path fill-rule="evenodd" clip-rule="evenodd" d="M22.2723 47.1861C24.6707 51.8229 28.6481 55.5583 32.9684 56.9345C37.5342 58.3889 40.6518 58.4904 42.9507 57.5813C45.2208 56.6837 46.9382 54.7009 48.4725 51.3729C51.5621 44.6715 52.7518 35.2408 44.9955 28.564C40.9325 25.0665 36.8457 22.8605 33.2972 22.0704C29.7602 21.2828 26.8851 21.9154 24.9537 23.8938C24.5221 24.336 24.4048 24.6839 24.3919 24.9435C24.3783 25.2168 24.4721 25.5688 24.7866 26.0226C25.4437 26.9708 26.8169 28.0124 28.6853 29.0887C30.5176 30.1442 32.682 31.1543 34.7778 32.0886C35.3848 32.3592 35.9891 32.6248 36.5774 32.8832C37.994 33.5057 39.3177 34.0873 40.3622 34.6006C43.5102 36.1477 45.3614 38.6875 45.3447 41.3001C45.3274 43.9942 43.3409 46.2298 39.9445 47.1091C38.7808 47.4104 37.654 47.0413 36.6745 46.4436C35.6934 45.845 34.727 44.9392 33.7977 43.9143C32.3451 42.3123 30.8456 40.2591 29.4092 38.2924C29.014 37.7512 28.6235 37.2166 28.2402 36.6997C27.3384 35.484 26.471 34.3582 25.6453 33.4234C24.81 32.4778 24.0687 31.7877 23.429 31.3933C22.7871 30.9974 22.4293 31.0046 22.2183 31.0858C21.9669 31.1825 21.5268 31.5307 21.0535 32.6605C19.1489 37.2073 19.8766 42.5543 22.2723 47.1861ZM32.64 57.9694C23.3327 55.0047 15.9292 42.0872 20.0541 32.2403C22.342 26.7784 26.2408 32.1157 30.3063 37.6814C33.5702 42.1496 36.9416 46.765 39.6733 46.0578C45.8076 44.4696 45.7019 38.4343 39.8848 35.5756C38.8622 35.073 37.5732 34.5066 36.1678 33.8891C29.5786 30.9939 20.4305 26.9743 24.1789 23.1346C28.7267 18.4758 37.3994 20.5934 45.7019 27.7404C54.0044 34.8873 52.6294 44.946 49.4565 51.8283C46.2836 58.7105 41.9472 60.934 32.64 57.9694Z" fill="black"/>
<path d="M28.7414 6.361C28.4798 5.02953 29.1529 3.81118 30.7858 2.79378C32.425 1.7725 34.9391 1.02779 38.0606 0.694363C44.2923 0.0287384 52.7748 1.02026 61.0563 4.48344C69.3229 7.9404 74.2658 12.5616 77.4212 17.4363C80.584 22.3226 81.97 27.491 83.0793 32.092C83.614 34.3096 83.6214 37.3442 83.1898 40.8271C82.7593 44.301 81.897 48.1839 80.7203 52.0799C78.3628 59.8853 74.7646 67.6751 70.9121 72.3136C69.0734 74.5275 66.6573 75.2988 64.1412 75.1401C61.6072 74.9803 58.978 73.8736 56.8057 72.3313C54.6269 70.7844 52.9728 68.8462 52.3271 67.0858C52.0063 66.2112 51.9456 65.4134 52.1517 64.7339C52.3546 64.0648 52.8347 63.4487 53.718 62.9587C57.6395 60.7836 62.4738 57.9124 66.7831 54.7035C71.0781 51.5052 74.9121 47.928 76.7651 44.3269C78.565 40.8291 79.2889 38.4961 79.1726 36.8368C79.1128 35.9836 78.8314 35.3063 78.37 34.7544C77.9173 34.2129 77.3132 33.8184 76.6501 33.4864C76.2451 33.2837 75.7455 33.1925 75.2152 33.1673C74.6788 33.1419 74.0756 33.1824 73.4401 33.2694C72.1691 33.4434 70.7247 33.8094 69.3461 34.2516C67.9661 34.6942 66.6361 35.2183 65.592 35.7156C65.0705 35.9639 64.6122 36.2094 64.2517 36.4387C63.9114 36.6551 63.5935 36.8962 63.4242 37.1505C63.1018 37.6346 63.1178 38.2038 63.2121 38.7545C63.2771 39.1341 63.3955 39.5814 63.5254 40.0718C63.5824 40.2867 63.6415 40.51 63.6993 40.7394C64.0874 42.2805 64.4983 44.3887 64.1893 47.3282C63.8873 50.1995 62.0581 53.5341 59.4314 55.9316C56.8063 58.3277 53.4838 59.7035 50.2159 58.8609C49.4112 58.6533 49.1467 58.3607 49.0629 58.1055C48.9648 57.8069 49.0311 57.3399 49.3741 56.6203C49.7074 55.9208 50.2472 55.0925 50.9196 54.1273C51.175 53.7607 51.4509 53.3725 51.7392 52.9668C52.1972 52.3224 52.6865 51.6339 53.1747 50.918C56.3661 46.2383 59.909 39.8356 57.1694 32.5401C54.4341 25.2562 47.6147 22.3535 41.3741 20.523C40.0331 20.1297 38.7089 19.7833 37.4523 19.4546C37.242 19.3995 37.0335 19.345 36.8271 19.2908C35.3833 18.9117 34.0462 18.5507 32.87 18.1564C31.6915 17.7612 30.7008 17.3408 29.9419 16.8525C29.1848 16.3654 28.6913 15.832 28.4518 15.2217C28.195 14.5672 28.2147 14.0891 28.3727 13.7335C28.5339 13.3707 28.8794 13.044 29.4544 12.7799C30.6215 12.2437 32.5326 12.0599 34.8494 12.2368C39.4609 12.5889 45.3494 14.3412 49.2834 16.9841C53.22 19.6287 55.6855 22.9238 57.4074 25.8491C58.1754 27.1537 58.7929 28.38 59.3315 29.4497C59.3979 29.5815 59.463 29.7109 59.5271 29.8377C60.0997 30.9712 60.6101 31.9531 61.1338 32.5646C61.5065 32.9999 62.0944 33.154 62.6874 33.1765C63.2955 33.1995 64.0138 33.0894 64.7784 32.8865C66.3117 32.4796 68.1278 31.6732 69.8129 30.6408C71.4955 29.6099 73.0841 28.3312 74.1359 26.9602C75.1804 25.5989 75.7675 24.0435 75.2023 22.5348C74.2028 19.8664 71.7646 17.0677 68.4797 14.7322C65.1851 12.3897 60.9936 10.4801 56.4237 9.61896C54.1193 9.1847 51.2734 9.15049 48.3155 9.2333C46.9665 9.27107 45.6087 9.33232 44.2604 9.39314C42.6102 9.46759 40.9744 9.54138 39.3865 9.57069C36.5206 9.62357 33.9527 9.52502 32.0344 9.03055C30.1106 8.53468 29.0025 7.68949 28.7414 6.361Z" fill="black" stroke="black"/>
</g>
<defs>
<clipPath id="clip0_116_1574">
<rect width="84" height="79" fill="white"/>
</clipPath>
</defs>
</svg>
