<svg width="24" height="98" viewBox="0 0 24 98" fill="none" xmlns="http://www.w3.org/2000/svg">
<path d="M22.8833 48.8C22.8833 62.2484 21.5769 74.4075 19.4727 83.1903C18.4196 87.5857 17.1732 91.1076 15.8075 93.5186C14.4193 95.9694 13.0095 97.1 11.6917 97.1C10.3738 97.1 8.96402 95.9694 7.5758 93.5186C6.21012 91.1076 4.9637 87.5857 3.91065 83.1903C1.80643 74.4075 0.5 62.2484 0.5 48.8C0.5 35.3516 1.80643 23.1925 3.91065 14.4097C4.9637 10.0143 6.21012 6.49237 7.5758 4.08138C8.96402 1.63058 10.3738 0.5 11.6917 0.5C13.0095 0.5 14.4193 1.63058 15.8075 4.08138C17.1732 6.49237 18.4196 10.0143 19.4727 14.4097C21.5769 23.1925 22.8833 35.3516 22.8833 48.8Z" stroke="black"/>
</svg>
