<svg width="126" height="41" viewBox="0 0 126 41" fill="none" xmlns="http://www.w3.org/2000/svg">
<mask id="path-1-outside-1_145_1369" maskUnits="userSpaceOnUse" x="0" y="0" width="126" height="41" fill="black">
<rect fill="white" width="126" height="41"/>
<path fill-rule="evenodd" clip-rule="evenodd" d="M7 2C4.23858 2 2 4.23858 2 7V14.882C4.88538 15.3174 7.08408 17.5757 7.08408 20.2962C7.08408 23.0168 4.88538 25.2751 2 25.7104V33.6C2 36.3614 4.23858 38.6 7 38.6H119C121.761 38.6 124 36.3614 124 33.6V25.7101C121.116 25.2741 118.918 23.0161 118.918 20.2962C118.918 17.5763 121.116 15.3184 124 14.8823V7C124 4.23858 121.761 2 119 2H7Z"/>
</mask>
<path fill-rule="evenodd" clip-rule="evenodd" d="M7 2C4.23858 2 2 4.23858 2 7V14.882C4.88538 15.3174 7.08408 17.5757 7.08408 20.2962C7.08408 23.0168 4.88538 25.2751 2 25.7104V33.6C2 36.3614 4.23858 38.6 7 38.6H119C121.761 38.6 124 36.3614 124 33.6V25.7101C121.116 25.2741 118.918 23.0161 118.918 20.2962C118.918 17.5763 121.116 15.3184 124 14.8823V7C124 4.23858 121.761 2 119 2H7Z" fill="#FFF991"/>
<path d="M2 14.882H0V16.6029L1.70162 16.8596L2 14.882ZM2 25.7104L1.70162 23.7328L0 23.9896V25.7104H2ZM124 25.7101H126V23.9898L124.299 23.7326L124 25.7101ZM124 14.8823L124.299 16.8598L126 16.6027V14.8823H124ZM4 7C4 5.34315 5.34315 4 7 4V0C3.13401 0 0 3.13401 0 7H4ZM4 14.882V7H0V14.882H4ZM9.08408 20.2962C9.08408 16.4196 5.98746 13.461 2.29838 12.9044L1.70162 16.8596C3.78329 17.1737 5.08408 18.7318 5.08408 20.2962H9.08408ZM2.29838 27.6881C5.98746 27.1315 9.08408 24.1729 9.08408 20.2962H5.08408C5.08408 21.8606 3.78329 23.4187 1.70162 23.7328L2.29838 27.6881ZM4 33.6V25.7104H0V33.6H4ZM7 36.6C5.34315 36.6 4 35.2569 4 33.6H0C0 37.466 3.13401 40.6 7 40.6V36.6ZM119 36.6H7V40.6H119V36.6ZM122 33.6C122 35.2569 120.657 36.6 119 36.6V40.6C122.866 40.6 126 37.466 126 33.6H122ZM122 25.7101V33.6H126V25.7101H122ZM116.918 20.2962C116.918 24.172 120.013 27.1301 123.701 27.6877L124.299 23.7326C122.218 23.418 120.918 21.8603 120.918 20.2962H116.918ZM123.701 12.9048C120.013 13.4623 116.918 16.4205 116.918 20.2962H120.918C120.918 18.7322 122.218 17.1744 124.299 16.8598L123.701 12.9048ZM122 7V14.8823H126V7H122ZM119 4C120.657 4 122 5.34315 122 7H126C126 3.13401 122.866 0 119 0V4ZM7 4H119V0H7V4Z" fill="black" mask="url(#path-1-outside-1_145_1369)"/>
</svg>
